<svg width="56" height="44" viewBox="0 0 56 44" fill="none" xmlns="http://www.w3.org/2000/svg">
<mask id="mask0_331_8703" style="mask-type:alpha" maskUnits="userSpaceOnUse" x="-25" y="0" width="81" height="44">
<rect x="-25" width="81" height="44" rx="8" fill="#F3F3F3"/>
</mask>
<g mask="url(#mask0_331_8703)">
<path d="M-22.0014 -70.9668C-30.6264 -67.6608 -39.844 -66.0197 -48.9036 -64.6849C-55.3008 -63.7414 -61.7197 -62.9625 -68.1602 -62.3481C-68.894 -62.0805 -69.6278 -61.813 -70.3615 -61.5395C-72.3202 -60.8111 -74.2761 -60.053 -76.215 -59.28C-77.12 -58.9173 -78.0213 -58.5457 -78.9188 -58.1651C-79.3506 -57.9838 -81.1089 -57.187 -80.7025 -57.3803C-83.9199 -55.876 -87.0865 -54.2973 -90.191 -52.5046C-91.9747 -51.4641 -93.7302 -50.367 -95.4433 -49.1987C-96.2373 -48.6576 -97.0266 -48.1006 -97.8112 -47.5278L-98.2713 -47.183C-98.4688 -46.8857 -98.5535 -46.7608 -98.5987 -46.7162C-99.2365 -45.8095 -99.8772 -44.9087 -100.492 -43.9841C-102.014 -41.7038 -103.447 -39.3551 -104.748 -36.9262C-105.358 -35.7876 -105.942 -34.6311 -106.487 -33.4568C-106.679 -33.0435 -106.865 -32.6243 -107.051 -32.2051C-107.077 -32.1397 -107.164 -31.9405 -107.334 -31.5332C-107.365 -31.45 -107.396 -31.3727 -107.418 -31.3103C-108.317 -28.7856 -109.065 -26.2039 -109.656 -23.5805C-109.919 -22.3616 -110.088 -21.1278 -110.325 -19.903C-109.854 -22.3289 -110.427 -18.806 -110.481 -18.0241C-110.949 -11.4776 -110.794 -4.83595 -110.672 1.71648C-110.466 13.5905 -109.826 25.4467 -109.179 37.3C-108.724 38.3465 -108.259 39.388 -107.785 40.4246C-102.903 50.9529 -97.4368 61.1698 -91.4159 71.0224C-89.9314 73.4751 -88.396 75.8951 -86.7845 78.2557C-86.4233 78.7878 -86.0479 79.3081 -85.6866 79.8373L-85.4637 80.1673L-85.3705 80.2832C-84.6593 81.1751 -83.9594 82.0997 -83.2425 82.9886C-74.6627 84.823 -66.4132 88.0843 -58.2003 91.4943C-53.2499 93.5486 -48.2996 95.6238 -43.2421 97.363C-40.623 98.2549 -37.9785 99.0754 -35.2945 99.7413C-34.0545 100.047 -32.808 100.316 -31.5549 100.55L-30.632 100.714C-30.1917 100.773 -29.3592 100.895 -29.2209 100.913C-21.9591 101.805 -14.6409 102.081 -7.33676 102.509C4.23466 102.001 15.8343 101.718 27.4114 101.07C42.6067 100.226 57.6975 98.347 72.7799 96.2719L74.668 96.0073L76.875 95.6832C78.512 95.4414 80.147 95.1927 81.7802 94.937C83.5639 94.6556 85.3457 94.3632 87.1256 94.06C95.2284 91.5092 103.258 88.7086 111.16 85.6465C113.279 84.82 115.388 83.9658 117.488 83.0838C118.089 82.8311 118.685 82.5754 119.283 82.3197L119.672 82.1503L120.765 81.6568L122.094 81.0443C126.209 79.1178 130.262 77.0427 134.23 74.7832C138.198 72.5238 142.039 70.083 145.753 67.4311C146.814 66.674 147.865 65.899 148.906 65.1062C149.425 64.7098 149.942 64.3085 150.455 63.9022L150.831 63.6049L151.737 62.8408C152.112 62.5227 152.487 62.1986 152.865 61.8746C153.735 61.1135 154.587 60.3316 155.437 59.5468C158.555 56.657 161.598 53.6781 164.437 50.4792C165.823 48.9154 167.104 47.2684 168.419 45.6422C167.835 46.3616 168.061 46.0911 168.419 45.6213C169.568 39.3543 170.959 32.6949 173.364 26.7251C173.189 22.6968 173.034 18.6654 173.099 14.643C173.194 8.39972 173.677 1.97513 175.238 -4.04812C172.876 -12.3219 171.089 -20.8454 170.756 -29.47L170.502 -29.9992C166.074 -35.0978 161.84 -40.3927 157.412 -45.4973C152.284 -51.4433 147.02 -57.2614 141.822 -63.1241C141.483 -63.5066 141.143 -63.8871 140.803 -64.2657L140.368 -64.4738C139.409 -64.8335 138.458 -65.2141 137.49 -65.55C135.514 -66.2427 133.499 -66.8403 131.47 -67.3695C129.237 -67.9641 126.985 -68.4457 124.719 -68.8768C123.49 -69.1087 122.259 -69.3227 121.027 -69.5189C120.573 -69.5903 119.616 -69.7181 119.385 -69.7478C116.159 -70.1343 112.93 -70.4762 109.696 -70.7527C104.051 -70.3633 98.3894 -70.1076 92.7194 -70.4197C90.7846 -70.5107 88.9023 -71.1107 87.2442 -72.1649C84.5084 -72.3115 81.7726 -72.4592 79.0369 -72.6078C67.0449 -73.2589 55.0445 -73.69 43.0413 -73.9873C23.3642 -73.7108 3.68149 -73.6722 -16.0012 -73.6424C-17.9546 -72.6384 -19.9575 -71.7453 -22.0014 -70.9668Z" fill="#F9F9F9"/>
<path d="M38.0712 -7.79688L71.1994 3.1288L71.7639 4.43096C71.7639 4.43096 67.8126 9.93096 67.1409 10.3769C66.4692 10.8228 50.8422 19.4802 50.8422 19.4802C50.8165 19.3286 50.7494 19.1883 50.6492 19.0763C50.5489 18.9644 50.4198 18.8857 50.2777 18.8499C49.7499 18.6626 46.2926 18.8112 45.7281 18.4039C45.1637 17.9966 42.4825 17.1404 41.918 15.9869C41.3536 14.8334 38.3902 8.55447 37.6846 7.25528C36.979 5.95609 35.7795 3.53907 35.7795 2.68286C35.7795 1.82664 38.0712 -7.79688 38.0712 -7.79688Z" fill="#6BA71E"/>
<path d="M23.8581 3.39009L23.5702 3.98469L16.0206 -0.0645008L6.50378 -14.0137L9.43898 -24.5767L10.0486 -24.3864L7.19808 -14.1386L16.4467 -0.587742L23.8581 3.39009Z" fill="#E7E7E7"/>
<path d="M32.0484 7.12451L32.3137 7.73398C28.2665 9.71398 24.2278 11.7237 20.2286 13.8137C19.2323 14.3369 18.2361 14.8661 17.2511 15.4102C16.76 15.6837 16.2661 15.9572 15.7835 16.2426C15.3045 16.5129 14.8401 16.8106 14.3921 17.1345C14.3441 17.1706 14.298 17.2093 14.2538 17.2505C14.2256 17.2891 14.1917 17.298 14.1579 17.3634C14.0874 17.471 14.0251 17.5844 13.9716 17.7024C13.9084 17.8257 13.8518 17.9528 13.8022 18.0829C13.7486 18.2107 13.6978 18.3415 13.6498 18.4783C13.4551 19.0134 13.2886 19.5664 13.1334 20.1253C12.8201 21.2432 12.552 22.3848 12.3121 23.5234L11.6912 23.3807C11.9339 22.2213 12.2048 21.0796 12.5237 19.938C12.6818 19.3672 12.8539 18.8024 13.0572 18.2375C13.1051 18.0978 13.1616 17.9402 13.2209 17.8153C13.276 17.6723 13.3381 17.5323 13.4071 17.3961C13.4746 17.2492 13.5529 17.108 13.6414 16.974C13.6942 16.8961 13.7548 16.8243 13.822 16.7599C13.8825 16.7041 13.9456 16.6515 14.0111 16.6024C14.4815 16.2582 14.9696 15.9416 15.4731 15.654C15.9641 15.3567 16.4609 15.0861 16.9548 14.8126C17.9482 14.2626 18.9473 13.7334 19.9464 13.2072C23.9541 11.1202 27.9928 9.11046 32.0484 7.12451Z" fill="#E7E7E7"/>
<path d="M27.2731 27.5189L26.6466 27.4208L27.2646 23L19.89 8.92592L8.13226 3.32187L8.39191 2.7124L20.3415 8.40862L27.9251 22.8751L27.2731 27.5189Z" fill="#E7E7E7"/>
<path d="M36.4724 17.2823L27.44 22.6348L27.7513 23.2178L36.7837 17.8653L36.4724 17.2823Z" fill="#E7E7E7"/>
<path d="M2.18006 -33.4507L2.76992 -33.201C1.47166 -29.7969 0.173394 -26.3631 -1.19542 -23.0037C-1.82479 -21.2972 -2.41747 -19.5818 -2.98193 -17.8426C-3.26416 -16.9774 -3.54639 -16.1093 -3.79476 -15.2353C-3.91611 -14.8012 -4.04029 -14.3642 -4.14189 -13.9272C-4.20116 -13.7072 -4.23221 -13.4931 -4.27737 -13.2791C-4.31323 -13.0782 -4.32367 -12.8733 -4.30842 -12.6696C-4.23786 -11.8015 -4.06287 -10.8858 -3.90765 -9.99393C-3.75242 -9.10204 -3.56897 -8.19528 -3.38834 -7.30042L-2.82388 -4.60987L-2.54165 -3.26609L-2.39771 -2.5942L-2.32716 -2.27015V-2.25231L-2.22273 -2.12744L4.70037 6.13742L4.21493 6.58039L-2.6997 -1.68149L-2.80978 -1.81528C-2.84838 -1.85536 -2.88334 -1.89915 -2.9142 -1.94609L-2.94524 -2.09771L-3.02145 -2.44258L-3.16821 -3.11447L-3.45044 -4.46123L-4.01489 -7.15771C-4.19834 -8.04961 -4.37051 -8.95934 -4.53702 -9.86609C-4.70354 -10.7729 -4.87005 -11.6647 -4.94908 -12.628C-4.96536 -12.8834 -4.95209 -13.14 -4.90956 -13.392C-4.86158 -13.6239 -4.82489 -13.8647 -4.7628 -14.0877C-4.65838 -14.5426 -4.53137 -14.9796 -4.40719 -15.4315C-4.15036 -16.3234 -3.87378 -17.1915 -3.58872 -18.0626C-3.02427 -19.8028 -2.42123 -21.531 -1.77963 -23.2474C-0.40517 -26.6396 0.878975 -30.0377 2.18006 -33.4507Z" fill="#E7E7E7"/>
<path d="M2.72193 54.5133L2.08974 54.4687L2.62598 45.7311L2.8941 41.3609L2.96183 40.2698L2.9957 39.7228C3.00767 39.5677 2.98844 39.4117 2.93926 39.2649C2.76992 38.5693 2.578 37.8647 2.3748 37.163C0.83382 31.553 -0.77207 25.9549 -2.37231 20.3568L-1.76552 20.1636C-0.165278 25.7647 1.44062 31.3598 2.98441 36.9787C3.17633 37.6833 3.36542 38.3849 3.54887 39.1044C3.60605 39.3047 3.63085 39.5138 3.62225 39.7228L3.58838 40.2728L3.52065 41.3668L3.25253 45.749L2.72193 54.5133Z" fill="#E7E7E7"/>
<path d="M3.00976 37.6033L2.54126 37.1514C2.77716 36.8925 3.03402 36.6557 3.30893 36.4438L3.51213 36.2862L3.61373 36.2179C3.64129 36.165 3.66579 36.1104 3.68711 36.0543C3.71251 35.983 3.73792 35.9087 3.7605 35.8343C3.94677 35.216 4.0907 34.556 4.23181 33.9049C4.51404 32.5968 4.75394 31.2738 4.99384 29.9508C5.46799 27.3049 5.91296 24.652 6.32878 21.9922L6.95533 22.0992C6.53481 24.7749 6.09453 27.4208 5.61756 30.0757C5.37767 31.4046 5.13213 32.7276 4.8499 34.0535C4.70596 34.7165 4.56767 35.3735 4.36446 36.0425C4.33624 36.1257 4.30802 36.2119 4.27697 36.2981C4.24283 36.4024 4.19737 36.5021 4.1415 36.5954C4.0964 36.6647 4.04003 36.7251 3.97498 36.7738L3.8762 36.8452L3.68994 36.9849C3.44702 37.1704 3.21948 37.3773 3.00976 37.6033Z" fill="#E7E7E7"/>
<path d="M9.56599 68.1359L8.93097 68.1181L9.76355 38.9502L12.9612 23.3867L13.5821 23.5294L10.3957 39.0335L9.56599 68.1359Z" fill="#E7E7E7"/>
<path d="M17.9623 54.4985L17.3273 54.4837L17.6124 40.4364L20.8637 25.7588L21.4818 25.9104L18.2446 40.5196L17.9623 54.4985Z" fill="#E7E7E7"/>
<path d="M26.5703 54.4896H25.9353V41.9288L28.8366 27.4028L29.4575 27.5396L26.5703 42.0001V54.4896Z" fill="#E7E7E7"/>
<path d="M34.4728 68.1329L33.8378 68.121L34.2639 42.7407L37.3064 29.3267L37.9216 29.4813L34.8961 42.824L34.4728 68.1329Z" fill="#E7E7E7"/>
<path d="M3.05001 37.9061L2.96405 38.5688L34.5373 43.1129L34.6233 42.4502L3.05001 37.9061Z" fill="#E7E7E7"/>
<path d="M47.3075 37.8954L40.1118 39.0093L40.2041 39.6711L47.3999 38.5572L47.3075 37.8954Z" fill="#E7E7E7"/>
<path d="M50.1845 43.8643L50.303 44.5213L40.4702 46.4775V48.2821H39.8351V45.9245L50.1845 43.8643Z" fill="#E7E7E7"/>
<path d="M54.8526 49.2899L54.2176 49.2512L54.672 41.0815L54.7002 40.5701V40.3145V40.1866C54.6959 40.1511 54.6959 40.1151 54.7002 40.0796V40.0172L54.8921 39.0093C55.0248 38.3374 55.1744 37.6685 55.3239 36.9996C55.403 36.6666 55.4848 36.3307 55.5808 35.9947C55.6287 35.8283 55.6824 35.6588 55.7445 35.4864C55.7784 35.3926 55.818 35.3013 55.863 35.2128C55.894 35.1623 55.9166 35.1118 55.9533 35.0612C55.9975 35.0087 56.0446 34.9591 56.0944 34.9126C56.2768 34.7766 56.4922 34.6982 56.7153 34.6866C56.9035 34.669 57.093 34.675 57.2798 34.7045C57.6241 34.7523 57.9628 34.838 58.2902 34.9601L58.0729 35.5904C57.7901 35.4851 57.4979 35.4104 57.2008 35.3674C56.9641 35.3117 56.7167 35.3378 56.4952 35.4418C56.4262 35.5284 56.3761 35.6298 56.3484 35.7391C56.2948 35.8847 56.244 36.0364 56.2017 36.1999C56.1085 36.515 56.0295 36.845 55.9505 37.1691C55.7953 37.8261 55.6683 38.4891 55.5243 39.155L55.3352 40.151V40.2134V40.2342V40.362V40.6177L55.307 41.1291L54.8526 49.2899Z" fill="#E7E7E7"/>
<path d="M60.2855 38.5003L54.8788 40.6865L55.1064 41.311L60.5131 39.1248L60.2855 38.5003Z" fill="#E7E7E7"/>
<path d="M40.933 25.0693L40.6451 24.4718L67.5247 10.0439L71.8569 3.42313L84.1876 -2.7666L117.093 21.255L116.732 21.805L84.1283 -1.9966L72.2831 3.94934L67.9565 10.5612L40.933 25.0693Z" fill="#E7E7E7"/>
<path d="M44.0347 32.1747L43.8625 31.5295C45.7789 30.9676 47.6952 30.4087 49.62 29.8766C50.1027 29.7428 50.5853 29.612 51.0735 29.4901C51.3163 29.4276 51.5816 29.3741 51.8299 29.3355L52.575 29.2285L55.5356 28.839L61.4624 28.0987L62.9441 27.9174L63.6836 27.8252C63.9517 27.7895 64.1859 27.7925 64.4371 27.7747L67.4175 27.6112L91.2461 26.3149L91.2772 26.9839L67.4626 28.283L64.4879 28.4436C64.2452 28.4614 63.9799 28.4614 63.7541 28.4941L63.0147 28.5833L61.533 28.7647L55.6062 29.5079L52.6484 29.8944L51.9174 30.0014C51.6791 30.0361 51.4426 30.0837 51.209 30.1441C50.732 30.2631 50.2522 30.3939 49.7724 30.5247C47.8617 31.0539 45.9454 31.6128 44.0347 32.1747Z" fill="#E7E7E7"/>
<path d="M50.1902 10.8314L50.2974 10.1714L54.3446 10.8909L72.7686 45.63L72.2154 45.9541L53.9382 11.4973L50.1902 10.8314Z" fill="#E7E7E7"/>
<path d="M56.0464 36.2355L55.6033 36.7171C55.0953 36.1909 54.5986 35.6646 54.1131 35.1087C53.9918 34.969 53.8733 34.8263 53.7547 34.6806C53.6264 34.5243 53.5103 34.3572 53.4076 34.1811C53.3648 34.1068 53.3342 34.0254 53.3173 33.9403L53.2947 33.866C53.2693 33.7887 53.2411 33.7114 53.2072 33.6252C53.1423 33.4617 53.0717 33.2922 53.0012 33.1228C52.7189 32.4479 52.4226 31.7701 52.1545 31.0803C51.8606 30.3846 51.6181 29.6659 51.4291 28.9309C51.2538 28.2301 51.0283 27.5444 50.7546 26.8795C50.4921 26.1957 50.2099 25.5179 49.9305 24.8401C49.366 23.4883 48.7818 22.1406 48.1779 20.7968L48.7423 20.4995C49.3425 21.8453 49.9296 23.198 50.5034 24.5576C50.7857 25.2414 51.0679 25.9222 51.3332 26.6149C51.6213 27.3129 51.8573 28.0336 52.0388 28.7703C52.2219 29.4669 52.453 30.1486 52.7302 30.8098C53.0125 31.4876 53.2947 32.1595 53.5769 32.8403C53.6475 33.0127 53.7209 33.1822 53.7886 33.3606C53.8253 33.4468 53.8591 33.5419 53.8902 33.64C53.902 33.6709 53.9115 33.7027 53.9184 33.7352V33.7887V33.8154V33.8303C54.1019 33.8065 53.67 33.869 53.7265 33.8601H53.7491C53.8083 33.8553 53.8669 33.8444 53.9241 33.8273C53.9241 33.8273 53.9241 33.8273 53.9241 33.8511C54.009 33.9899 54.1033 34.1221 54.2063 34.2465C54.3164 34.3803 54.4292 34.5171 54.545 34.6509C55.053 35.1949 55.5469 35.7152 56.0464 36.2355Z" fill="#E7E7E7"/>
<path d="M53.4158 20.4206L49.7922 23.9863L50.2257 24.4751L53.8493 20.9094L53.4158 20.4206Z" fill="#E7E7E7"/>
<path d="M79.6437 15.6302L79.4546 16.2694L73.5024 14.3102V5.31099L72.2973 4.2972L71.9671 4.02072L71.9304 3.98801H71.888L71.6848 3.91963L70.8748 3.65802L67.6376 2.60856L61.1464 0.503689L48.192 -3.70009L41.7007 -5.80198L38.4607 -6.85442L36.8548 -7.39253C36.7222 -7.43415 36.5726 -7.48766 36.4569 -7.52036C36.3349 -7.55882 36.2104 -7.58764 36.0843 -7.60658C35.823 -7.64965 35.5586 -7.66855 35.2941 -7.66307C34.1829 -7.61155 33.0776 -7.46439 31.9892 -7.22306C31.422 -7.10393 30.8477 -7.02645 30.2704 -6.99117C29.6917 -6.96293 29.1119 -6.97485 28.5347 -7.02685C27.9529 -7.07609 27.3766 -7.18158 26.8131 -7.34199C26.5256 -7.42348 26.2428 -7.52275 25.9664 -7.63928C25.683 -7.76203 25.4125 -7.91546 25.1592 -8.09712C24.8674 -8.30675 24.6523 -8.61514 24.5496 -8.97117C24.4547 -9.30686 24.4373 -9.66156 24.4988 -10.0058C24.6143 -10.6419 24.8473 -11.248 25.1846 -11.7896L25.7124 -11.415C25.4257 -10.9578 25.2272 -10.4456 25.1282 -9.90766C25.0407 -9.38442 25.1536 -8.90874 25.5318 -8.64712C25.6329 -8.56775 25.7406 -8.49811 25.8535 -8.43901C25.972 -8.37955 26.0906 -8.31712 26.2148 -8.2636C26.4628 -8.15416 26.7173 -8.0618 26.9768 -7.98712C27.5036 -7.83807 28.042 -7.73858 28.5855 -7.68982C29.1345 -7.64077 29.686 -7.62885 30.2365 -7.65415C30.7865 -7.6894 31.3335 -7.7649 31.8735 -7.88009C32.9973 -8.12737 34.1385 -8.27751 35.2856 -8.32901C35.586 -8.33505 35.8864 -8.31317 36.1831 -8.2636C36.337 -8.24041 36.4889 -8.20463 36.6375 -8.15658C36.7899 -8.11199 36.9197 -8.06739 37.0496 -8.02577L38.6696 -7.49955L41.9067 -6.45009L48.3839 -4.3482L61.3355 -0.144418L67.8098 1.95747L71.0526 3.01288L71.8598 3.2745L72.063 3.33991L72.1223 3.36072L72.2239 3.39639L72.3509 3.50342L72.6839 3.7799L74.1261 4.99288V13.8286L79.6437 15.6302Z" fill="#E7E7E7"/>
<path d="M57.3985 -1.05197L53.8402 11.1016L54.447 11.2987L58.0053 -0.854832L57.3985 -1.05197Z" fill="#E7E7E7"/>
<path d="M42.6772 -27.2494L42.5784 -27.1394L42.457 -27.0145L42.203 -26.7678C41.5144 -26.1107 40.7693 -25.4567 40.027 -24.8116C38.5368 -23.5213 37.0128 -22.2548 35.4831 -21.0002C32.4209 -18.494 29.3164 -16.0264 26.1695 -13.6391C25.3849 -13.0445 24.5947 -12.4499 23.8044 -11.8732C23.0142 -11.2964 22.1788 -10.684 21.3942 -10.0716C19.8024 -8.82886 18.2699 -7.53264 16.7685 -6.2067C13.7599 -3.55183 10.8416 -0.807777 7.98264 1.99871C7.26765 2.70033 6.55643 3.40889 5.84898 4.12438L4.79062 5.20358L4.31082 5.64952L3.74636 6.12222C2.25619 7.37978 0.701103 8.61951 -0.848343 9.85033C-3.95287 12.3149 -7.07998 14.7557 -10.2043 17.2055C-13.3285 19.6552 -16.4528 22.09 -19.5545 24.6379L-20.1359 25.1165L-20.7032 25.6071L-20.9855 25.8568L-21.2479 26.0709C-21.4229 26.2076 -21.5838 26.3682 -21.7672 26.4811C-22.5124 26.9988 -23.3047 27.437 -24.1323 27.7892C-25.8725 28.4847 -27.6803 28.9753 -29.5229 29.252C-31.4081 29.5432 -33.308 29.7159 -35.2127 29.7692C-36.1694 29.799 -37.129 29.8198 -38.0886 29.8109C-38.5684 29.8109 -39.0482 29.8109 -39.528 29.7901L-40.2364 29.7692H-40.9871C-43.0229 29.723 -45.0567 29.9296 -47.0466 30.3847C-49.0571 30.8608 -50.9851 31.6632 -52.7617 32.763L-53.4024 33.1495C-53.6056 33.2684 -53.8173 33.4022 -54.012 33.5092C-54.3435 33.7144 -54.6994 33.8724 -55.0704 33.979L-55.3272 34.0265C-55.4147 34.0414 -55.536 34.0444 -55.6376 34.0533L-55.9594 34.0801H-56.3009C-56.5267 34.0801 -56.7553 34.0801 -56.9923 34.0801C-57.2294 34.0801 -57.458 34.0801 -57.6979 34.0652C-59.5917 33.9909 -61.5193 33.8125 -63.4385 33.6044C-65.3576 33.3963 -67.2853 33.1495 -69.2016 32.876L-69.9185 32.7719L-70.0963 32.7452L-70.2543 32.7125L-70.5704 32.653C-70.9942 32.5612 -71.4112 32.437 -71.8179 32.2814C-72.6526 31.9604 -73.4491 31.5384 -74.1914 31.0238C-75.7282 29.9464 -77.1224 28.6587 -78.3374 27.1946C-78.6507 26.823 -78.9555 26.4484 -79.2546 26.0649C-79.642 25.5937 -80.0871 25.1788 -80.5783 24.8311C-81.4352 24.2321 -82.3301 23.6957 -83.2567 23.2257C-85.0347 22.2952 -86.8043 21.4568 -88.5626 20.5857C-90.3209 19.7146 -92.0651 18.8346 -93.7923 17.91C-99.5629 14.8601 -105.153 11.4449 -110.531 7.68303C-110.503 8.65221 -110.475 9.62438 -110.441 10.5936C-105.403 14.0502 -100.185 17.2065 -94.8112 20.0476C-93.0613 20.9722 -91.2946 21.8671 -89.525 22.7382C-87.7554 23.6092 -85.9802 24.4595 -84.2727 25.3544C-83.4436 25.774 -82.6421 26.2517 -81.8737 26.7844C-81.5544 27.0072 -81.2632 27.2719 -81.0073 27.5722C-80.6893 27.9805 -80.3629 28.3829 -80.028 28.7793C-78.6808 30.4081 -77.1337 31.8408 -75.4276 33.0395C-74.5436 33.6466 -73.5967 34.1453 -72.6053 34.526C-72.0964 34.7201 -71.5748 34.8751 -71.0446 34.9898L-70.6438 35.0671L-70.4434 35.1057L-70.26 35.1325L-69.5318 35.2395C-67.5901 35.516 -65.6483 35.7628 -63.6953 35.9768C-61.7423 36.1909 -59.7921 36.3722 -57.7939 36.4465C-57.5455 36.4614 -57.2915 36.4465 -57.0403 36.4644C-56.7891 36.4822 -56.5323 36.4644 -56.2727 36.4644H-55.8832L-55.4768 36.4347C-55.3357 36.4347 -55.2115 36.4168 -55.0591 36.393L-54.599 36.3068C-54.0271 36.1562 -53.478 35.922 -52.9677 35.6111C-52.7307 35.4803 -52.5246 35.3495 -52.3017 35.2187L-51.6751 34.8411C-50.0903 33.8551 -48.3685 33.1368 -46.5724 32.7125C-44.7503 32.2955 -42.888 32.1059 -41.0238 32.1476H-40.3154L-39.5788 32.1655C-39.0849 32.1655 -38.5938 32.1892 -38.0999 32.1863C-37.1121 32.1863 -36.1243 32.1863 -35.1336 32.1446C-33.1438 32.0843 -31.159 31.8996 -29.1899 31.5917C-27.1771 31.2893 -25.2025 30.7518 -23.3026 29.9892C-22.3242 29.5717 -21.3882 29.0518 -20.5085 28.4373C-20.2855 28.2857 -20.0767 28.0984 -19.8593 27.926L-19.5461 27.6703L-19.2638 27.4355L-18.7135 26.9657L-18.149 26.496C-15.0981 24.0017 -11.9569 21.5609 -8.83545 19.1111C-5.71398 16.6614 -2.58405 14.2206 0.531769 11.7471C2.08968 10.5074 3.6363 9.27357 5.18856 7.96844L5.76713 7.47195L6.37957 6.89816L7.41817 5.83681C8.11434 5.13123 8.81803 4.43159 9.52925 3.7379C12.3657 0.9552 15.2557 -1.77102 18.2191 -4.38426C19.7008 -5.6894 21.2051 -6.96183 22.7348 -8.16291C23.1158 -8.46021 23.5053 -8.75751 23.8919 -9.0548L25.0858 -9.93183C25.8958 -10.5264 26.6917 -11.121 27.4847 -11.7156C30.6598 -14.1297 33.7728 -16.6032 36.8576 -19.1302C38.4014 -20.3937 39.9339 -21.6691 41.4495 -22.9802C42.2115 -23.6432 42.9622 -24.3002 43.7073 -25.0197L43.9895 -25.2962L44.1306 -25.4329L44.2831 -25.6024L44.5879 -25.9413L44.8108 -26.2059C45.1128 -26.5597 45.4458 -26.9343 45.776 -27.297C48.4516 -30.2164 51.2428 -33.0764 54.0821 -35.8294C55.4932 -37.194 56.9552 -38.5616 58.4397 -39.7478C58.6232 -39.8875 58.8094 -40.0451 59.0042 -40.1729L59.5432 -40.5475C59.9694 -40.818 60.4068 -41.0916 60.8161 -41.368C61.6628 -41.918 62.4728 -42.474 63.2941 -43.0359C66.5708 -45.2775 69.8051 -47.5667 73.0253 -49.8916C74.6341 -51.057 76.2399 -52.2283 77.8233 -53.4264C79.4066 -54.6245 80.9984 -55.8256 82.5591 -57.1516L83.1489 -57.6778L83.4312 -57.9453L83.6965 -58.1921C84.0464 -58.5251 84.4105 -58.858 84.7774 -59.188C85.5084 -59.848 86.2506 -60.5051 86.9957 -61.1562C88.4897 -62.4643 89.9949 -63.7635 91.5114 -65.0537C93.5548 -66.8018 95.6066 -68.544 97.6669 -70.2802C96.4928 -70.2802 95.3187 -70.307 94.1446 -70.3516C92.8012 -69.208 91.454 -68.0554 90.1031 -66.894C88.5979 -65.5998 87.0926 -64.2956 85.5874 -62.9816C84.8367 -62.3245 84.0888 -61.6645 83.3296 -60.9867C82.957 -60.6508 82.5845 -60.3118 82.2007 -59.958L81.9184 -59.6935L81.6588 -59.4616L81.1338 -58.9918C79.6634 -57.7432 78.0829 -56.5451 76.5109 -55.3618C74.9389 -54.1786 73.3386 -53.0072 71.7412 -51.8508C68.5426 -49.5378 65.3139 -47.2585 62.0551 -45.0129C61.2422 -44.457 60.4266 -43.901 59.611 -43.3659C59.2017 -43.0924 58.8009 -42.8426 58.3945 -42.581L57.7144 -42.1143C57.4886 -41.9567 57.2967 -41.7932 57.0878 -41.6326C55.4707 -40.3364 54.0172 -38.957 52.5722 -37.5656C49.6849 -34.7651 46.8909 -31.917 44.1589 -28.9202C43.8146 -28.5456 43.4815 -28.174 43.1316 -27.7607L42.8719 -27.4635L42.6772 -27.2494Z" fill="#E7E7E7"/>
<path d="M1.36722 68.3436C1.32771 67.1544 1.21482 66.0157 1.08499 64.8711C0.802759 62.5909 0.404811 60.3463 -0.0834475 58.1225C-0.571705 55.8987 -1.1672 53.7017 -1.72602 51.5552L-3.38272 45.0533C-5.56153 36.3702 -7.70553 27.6713 -9.81473 18.9565L-12.002 19.5511C-9.88529 28.2719 -7.74222 36.9777 -5.57282 45.6687L-3.90766 52.1914C-3.3432 54.3795 -2.75616 56.5022 -2.29048 58.6636C-1.8248 60.8249 -1.42968 62.9982 -1.16156 65.1774C-1.03173 66.2625 -0.924486 67.3655 -0.87933 68.4179V68.5279L-0.893446 68.6884L-0.932954 69.1076L-1.01198 69.946L-1.16438 71.6257C-1.57644 76.103 -1.97344 80.5813 -2.3554 85.0606L-2.9001 91.7914L-3.1541 95.1747C-3.22466 96.3103 -3.30369 97.4103 -3.32627 98.6144V99.0722C-3.32627 99.2268 -3.30933 99.3695 -3.30087 99.536C-3.27829 99.8333 -3.25571 100.157 -3.21902 100.428C-3.15411 101.002 -3.08637 101.573 -3.00735 102.131C-3.00735 102.197 -2.98759 102.262 -2.97912 102.328L-0.721281 102.238C-0.741037 102.093 -0.763616 101.941 -0.783372 101.798C-0.862396 101.245 -0.92731 100.701 -0.986578 100.16C-1.02327 99.8809 -1.0402 99.6311 -1.05714 99.3844C-1.05714 99.2566 -1.08254 99.1347 -1.07972 99.0068V98.6203C-1.05996 97.5798 -0.980939 96.4352 -0.913204 95.3293L-0.667657 91.9817L-0.12578 85.2747C0.250526 80.8013 0.646587 76.328 1.06241 71.8547L1.21764 70.1779L1.29384 69.3395L1.33335 68.9203L1.35593 68.6617C1.36003 68.5964 1.36003 68.5308 1.35593 68.4655L1.36722 68.3436Z" fill="#E7E7E7"/>
<path d="M3.22707 53.1698C1.77641 53.143 0.322922 53.1371 -1.13056 53.0895L-5.49102 52.9587L-22.9159 52.3641L-57.5963 51.2255L-59.1486 50.6517L-60.0094 50.3366L-60.3565 50.2087L-60.7037 50.0244L-63.9606 48.2971L-67.2288 46.5876C-68.3239 46.0258 -69.4105 45.4639 -70.5507 44.9228C-70.8582 44.7716 -71.1739 44.6396 -71.4961 44.5274C-71.6739 44.459 -71.8207 44.4203 -71.9759 44.3728C-72.1312 44.3252 -72.2892 44.2776 -72.4388 44.239C-73.0456 44.0725 -73.6467 43.9209 -74.2451 43.7782C-75.4417 43.4809 -76.6355 43.2282 -77.8294 42.9695C-80.217 42.4582 -82.6094 41.9766 -85.0065 41.5247C-85.6133 41.4147 -86.1947 41.3017 -86.8438 41.2066C-87.016 41.1857 -87.1938 41.162 -87.3603 41.1471L-87.8485 41.1174C-88.1731 41.0966 -88.4807 41.0966 -88.7968 41.0876C-90.0471 41.0728 -91.272 41.1114 -92.4969 41.1649C-94.9438 41.269 -97.3738 41.4444 -99.801 41.6436C-101.018 41.7447 -102.232 41.8527 -103.442 41.9676C-104.607 42.0776 -105.784 42.2114 -106.908 42.3036C-106.549 43.0676 -106.185 43.8317 -105.821 44.5928C-104.949 44.5095 -104.097 44.4174 -103.236 44.3371C-102.033 44.2202 -100.83 44.1121 -99.626 44.0131C-97.2186 43.8168 -94.8055 43.6444 -92.4037 43.5403C-91.2043 43.4898 -90.0048 43.4512 -88.8279 43.466C-88.5457 43.466 -88.2408 43.466 -87.9586 43.4928L-87.5381 43.5195C-87.4026 43.5195 -87.2813 43.5493 -87.1514 43.5612C-86.587 43.6414 -85.9858 43.7603 -85.3988 43.8585C-83.0252 44.3044 -80.646 44.786 -78.2809 45.2914C-77.0984 45.5471 -75.9159 45.8058 -74.7474 46.0882C-74.1632 46.2279 -73.5818 46.3855 -73.0145 46.5282C-72.8706 46.5668 -72.7323 46.6085 -72.6025 46.6501C-72.4727 46.6917 -72.3203 46.7303 -72.213 46.772C-71.9595 46.8617 -71.7107 46.966 -71.4679 47.0841C-70.3983 47.5955 -69.3032 48.1574 -68.2223 48.7163L-64.971 50.4139L-61.7253 52.1352L-61.2625 52.3849L-60.7516 52.5752L-59.905 52.8903L-58.0225 53.5801L-22.9752 54.7425L-5.54463 55.3371L-1.18701 55.4798C0.263649 55.5274 1.71996 55.5303 3.17062 55.5601L11.8915 55.6968L46.7667 56.229L55.4848 56.3687H56.0718C56.2524 56.3687 56.4359 56.3687 56.6137 56.3687L57.0878 56.0863L58.0587 55.5066L59.9553 54.3857L63.7597 52.1649C65.0298 51.4306 66.2998 50.7022 67.5811 49.9917C68.8625 49.2812 70.1438 48.5766 71.4166 47.9522C71.5775 47.869 71.7327 47.7976 71.8851 47.7322C72.0376 47.6668 72.2012 47.5866 72.3367 47.5301C72.3903 47.5301 72.4468 47.4974 72.5004 47.4766L72.5794 47.4468H72.5992C72.5992 47.4201 72.6218 47.4944 72.5992 47.3844C72.6302 47.4885 72.6274 47.4082 72.6443 47.429H72.681C72.873 47.3844 73.0677 47.3398 73.2455 47.2922C73.9849 47.102 74.6905 46.8939 75.3989 46.6798C76.1073 46.4658 76.8101 46.2428 77.5043 46.0168L78.5514 45.6779L80.0472 45.1784L80.4395 44.3668L80.6484 43.9476L81.052 43.1657C81.3229 42.6465 81.6051 42.1311 81.8987 41.6198C82.4631 40.5971 83.0699 39.5922 83.6993 38.6171C84.3177 37.6493 84.9827 36.7156 85.6918 35.8195L86.2337 35.1803C86.4143 34.9693 86.6062 34.779 86.7982 34.5858C86.9901 34.3925 87.1848 34.232 87.3626 34.0506C87.5629 33.8716 87.7721 33.7039 87.9892 33.5482C88.4097 33.2093 88.8923 32.9179 89.3495 32.6058C89.8067 32.2936 90.3063 32.0112 90.803 31.7466C91.2997 31.482 91.7908 31.1936 92.3017 30.9439C92.8125 30.6941 93.312 30.4266 93.8285 30.1887C95.886 29.2076 97.9971 28.3336 100.134 27.5457C102.262 26.7521 104.429 26.0763 106.625 25.5211C107.694 25.2655 108.84 25.0395 109.972 24.7898C111.104 24.5401 112.23 24.2814 113.359 23.9901C117.889 22.8366 122.283 21.2609 126.624 19.6079C130.964 17.9549 135.237 16.1771 139.51 14.3606C143.783 12.5441 148.011 10.6236 152.244 8.69412C159.797 5.22763 167.301 1.65115 174.758 -2.03534C174.907 -2.71318 175.067 -3.38705 175.241 -4.05696L175.029 -4.80615C167.2 -0.895701 159.305 2.87799 151.344 6.51493C147.136 8.43845 142.92 10.3322 138.678 12.1636C134.436 13.9949 130.157 15.7312 125.864 17.3782C121.572 19.0252 117.248 20.5533 112.842 21.6682C111.742 21.9655 110.635 22.2093 109.518 22.453C108.4 22.6968 107.288 22.9168 106.131 23.1933C103.859 23.7702 101.617 24.4698 99.4138 25.2893C97.2153 26.1009 95.0506 26.9987 92.9226 28.0125C92.3891 28.2593 91.8614 28.5268 91.3336 28.7974C90.8058 29.0679 90.2865 29.3563 89.7644 29.6417C89.2423 29.9271 88.7286 30.2363 88.2121 30.5603C87.6957 30.8844 87.1933 31.2144 86.6966 31.6098C86.1819 31.9899 85.6951 32.4103 85.2403 32.8674C85.0258 33.0993 84.8 33.3252 84.5939 33.5601L83.99 34.2766C83.2275 35.237 82.5125 36.2383 81.8479 37.2763C81.1846 38.302 80.5637 39.3574 79.971 40.4098C79.6888 40.942 79.384 41.4741 79.1018 42.0152L78.6841 42.8268L78.4921 43.2103L76.858 43.7425C76.1666 43.9655 75.4779 44.1825 74.7865 44.3936C74.095 44.6047 73.4064 44.8068 72.7318 44.9882C72.5597 45.0328 72.3988 45.0685 72.2379 45.1071L72.1758 45.122L72.0855 45.1487L71.9077 45.2052L71.5521 45.3241C71.3461 45.4074 71.1824 45.4876 70.9877 45.5679C70.7929 45.6482 70.6264 45.7285 70.4599 45.8147C69.0995 46.4836 67.8097 47.1941 66.5087 47.9136C65.2076 48.633 63.9347 49.3644 62.6562 50.1017L58.8348 52.3314L56.9326 53.4582L56.0041 54.0112H55.5017L46.8034 53.8506L11.9395 53.3006L3.22707 53.1698Z" fill="#E7E7E7"/>
<path d="M3.08035 -67.2653L1.95142 -64.6967L1.38696 -63.4183C1.19787 -63.0021 1.02289 -62.6008 0.822502 -62.1726C0.0266113 -60.4929 -0.789032 -58.8518 -1.67806 -57.2553C-2.54781 -55.6667 -3.51608 -54.1403 -4.57656 -52.6859C-5.10432 -51.9635 -5.66879 -51.2975 -6.25301 -50.6435C-6.88708 -49.9517 -7.50704 -49.2511 -8.1129 -48.5416C-9.32648 -47.1264 -10.4977 -45.6845 -11.6521 -44.2248C-12.8064 -42.7651 -13.9409 -41.2935 -15.0388 -39.7654C-15.3211 -39.3878 -15.6033 -39.0072 -15.8629 -38.6148C-16.1226 -38.2224 -16.4105 -37.824 -16.6729 -37.3721C-17.1668 -36.5159 -17.5958 -35.6924 -18.0305 -34.857L-20.5705 -29.8653C-22.2639 -26.5505 -23.9573 -23.2267 -25.7946 -20.0545C-26.0232 -19.6562 -26.2631 -19.2756 -26.4974 -18.8862C-26.7316 -18.4967 -26.9828 -18.1459 -27.2283 -17.7772C-27.4739 -17.4086 -27.7476 -17.0518 -28.0214 -16.6981C-28.2952 -16.3443 -28.5661 -15.9845 -28.854 -15.6397C-29.9829 -14.2454 -31.2134 -12.9075 -32.4778 -11.6172C-33.7422 -10.327 -35.0574 -9.0813 -36.4121 -7.91589C-37.0686 -7.34048 -37.7525 -6.80069 -38.4611 -6.2986C-38.6361 -6.17374 -38.7828 -6.09644 -38.9465 -6.0013C-39.201 -5.85174 -39.4436 -5.68073 -39.6719 -5.48995L-39.9879 -5.21941C-40.0839 -5.12724 -40.1714 -5.03508 -40.2702 -4.94292C-40.4593 -4.7586 -40.6258 -4.56832 -40.7867 -4.38103C-41.4414 -3.62292 -41.9974 -2.84995 -42.5421 -2.07995C-43.0868 -1.30995 -43.6033 -0.542923 -44.1283 0.18248C-44.3907 0.539238 -44.656 0.895996 -44.9185 1.19627L-45.1104 1.41924L-45.2939 1.59762L-45.339 1.64221L-45.3701 1.66302L-45.4293 1.70762C-45.5029 1.76641 -45.5813 1.81815 -45.6636 1.86221L-48.0005 3.29519L-50.3373 4.72816L-51.5086 5.44464L-51.7908 5.626L-52.1154 5.86086C-52.2311 5.94113 -52.327 6.01842 -52.4174 6.09275L-52.6996 6.31572C-54.1474 7.50491 -55.5219 8.70897 -56.8992 9.916L-61.0226 13.543C-62.397 14.7471 -63.7743 15.963 -65.1488 17.1106L-65.6539 17.5209C-65.8317 17.6695 -66.0434 17.8657 -66.2325 18.0352C-66.4216 18.2046 -66.5853 18.3801 -66.7575 18.5465L-67.257 19.049C-67.9033 19.7209 -68.5468 20.3898 -69.1734 21.0646C-70.4377 22.4144 -71.6824 23.773 -72.927 25.1376C-77.8943 30.5871 -82.8051 36.0841 -87.6961 41.599L-86.0451 43.2222C-81.1568 37.7163 -76.2489 32.2222 -71.2985 26.7846C-70.0596 25.426 -68.8177 24.0703 -67.5675 22.7355C-66.9437 22.0636 -66.3115 21.4065 -65.6822 20.7555L-65.2108 20.2798C-65.0556 20.1252 -64.8891 19.9468 -64.7508 19.8309L-64.5363 19.6346L-64.4291 19.5336C-64.3952 19.5038 -64.3557 19.4682 -64.3049 19.4295C-64.1214 19.2779 -63.9267 19.1322 -63.7404 18.9776C-62.3293 17.7884 -60.9492 16.5725 -59.5691 15.3625L-55.4457 11.7384C-54.0741 10.5492 -52.6911 9.3214 -51.3167 8.19167L-51.0598 7.98654C-50.9752 7.91519 -50.8905 7.84978 -50.8199 7.79924L-50.5913 7.63276L-50.3091 7.45735L-49.1576 6.74979L-46.8518 5.33762L-44.5488 3.92546C-44.4472 3.86005 -44.3766 3.82735 -44.2101 3.70545L-43.9956 3.54788L-43.8912 3.46465L-43.8122 3.39032L-43.5017 3.09302C-43.4086 2.99194 -43.3296 2.89383 -43.2421 2.79572C-42.8977 2.40032 -42.6155 2.01086 -42.3305 1.62141C-41.766 0.848434 -41.2523 0.0784302 -40.7246 -0.667786C-40.1968 -1.414 -39.669 -2.13644 -39.1159 -2.77563C-38.9804 -2.93616 -38.8336 -3.09373 -38.701 -3.23049L-38.4921 -3.44157L-38.2833 -3.61697L-38.1817 -3.70617C-38.1478 -3.73293 -38.1168 -3.74779 -38.0857 -3.76859L-37.8995 -3.89644C-37.6821 -4.0332 -37.4309 -4.1759 -37.2334 -4.31562C-36.4518 -4.86845 -35.6982 -5.46385 -34.9755 -6.0994C-33.5644 -7.3213 -32.2069 -8.60265 -30.8973 -9.93454C-29.5878 -11.2664 -28.3262 -12.6518 -27.1296 -14.1175C-26.8276 -14.4802 -26.5425 -14.8637 -26.2462 -15.2354C-25.9498 -15.607 -25.6817 -16.0083 -25.3995 -16.3948C-25.1173 -16.7813 -24.8548 -17.2035 -24.5979 -17.6078C-24.3411 -18.0121 -24.0956 -18.4224 -23.8642 -18.8326C-21.9647 -22.1029 -20.2742 -25.4327 -18.5723 -28.7624L-16.0323 -33.7362C-15.6061 -34.5567 -15.1715 -35.3832 -14.7368 -36.1383C-14.5308 -36.4921 -14.2881 -36.8578 -14.0256 -37.2294C-13.7631 -37.601 -13.5007 -37.9697 -13.2326 -38.3354C-12.1544 -39.8218 -11.0312 -41.2697 -9.89377 -42.7086C-8.75639 -44.1475 -7.61335 -45.5656 -6.42799 -46.9332C-5.8353 -47.6289 -5.23415 -48.3087 -4.62454 -48.9726C-3.97688 -49.6841 -3.36456 -50.4303 -2.79005 -51.2083C-1.66806 -52.7451 -0.643234 -54.358 0.277794 -56.0364C1.20351 -57.6953 2.04738 -59.3989 2.84892 -61.0905C3.04929 -61.5037 3.24968 -61.9586 3.44724 -62.3926L4.0117 -63.6829L5.14062 -66.2605L8.327 -73.6899H5.84337L3.08035 -67.2653Z" fill="#E7E7E7"/>
<path d="M24.2194 -10.7492L3.68431 -33.8373L-0.145554 -38.1452L-0.467291 -38.5049L-0.817253 -38.8646L-1.48332 -39.5484C-3.25949 -41.3798 -5.02625 -43.22 -6.7836 -45.0692C-8.53907 -46.9184 -10.2889 -48.7765 -12.0133 -50.6525C-12.8751 -51.5919 -13.7274 -52.5364 -14.5703 -53.4857L-17.0935 -56.3755L-27.1521 -67.9968L-27.9847 -68.9541C-28.8013 -68.7143 -29.6207 -68.4834 -30.4429 -68.2614L-28.8145 -66.3855L-18.753 -54.773L-16.2129 -51.8655C-15.3549 -50.8982 -14.4922 -49.9429 -13.6248 -48.9995C-11.8863 -47.1087 -10.1308 -45.2446 -8.36691 -43.3865C-6.60297 -41.5284 -4.83056 -39.6882 -3.04969 -37.8509L-2.38081 -37.1611L-2.06471 -36.8341L-1.74579 -36.4773L-0.470116 -35.0444L2.06995 -32.1784L22.3679 -9.35491L39.3808 24.5162L56.6363 58.4318L58.6119 57.3081L41.3705 23.3983L24.2194 -10.7492Z" fill="#E7E7E7"/>
<path d="M-9.42201 17.1158L-9.92645 19.4341L43.8218 32.4117L44.3262 30.0934L-9.42201 17.1158Z" fill="#E7E7E7"/>
<path opacity="0.2" d="M29 26C29 26.5523 26.9853 27 24.5 27C22.0147 27 20 26.5523 20 26C20 25.4477 22.0147 25 24.5 25C26.9853 25 29 25.4477 29 26Z" fill="#FFB500"/>
<path d="M31.3242 14.8877C30.5008 11.2222 27.3025 9.5835 24.5 9.5835C24.5 9.5835 24.5 9.5835 24.4921 9.5835C21.6975 9.5835 18.5071 11.2222 17.6758 14.8797C16.7417 18.9647 19.2433 22.4243 21.5075 24.6093C22.3467 25.4168 23.4233 25.8206 24.5 25.8206C25.5767 25.8206 26.6533 25.4168 27.4846 24.6093C29.7487 22.4243 32.2504 18.9727 31.3242 14.8877ZM27.0967 15.5447L23.93 18.7114C23.8112 18.8302 23.6608 18.8856 23.5104 18.8856C23.36 18.8856 23.2096 18.8302 23.0908 18.7114L21.9033 17.5239C21.6737 17.2943 21.6737 16.9143 21.9033 16.6847C22.1329 16.4552 22.5129 16.4552 22.7425 16.6847L23.5104 17.4527L26.2575 14.7056C26.4871 14.476 26.8671 14.476 27.0967 14.7056C27.3262 14.9352 27.3262 15.3152 27.0967 15.5447Z" fill="#FFB500"/>
</g>
</svg>
