

<svg width="138" height="139" viewBox="0 0 138 139" fill="none" xmlns="http://www.w3.org/2000/svg">
<g clip-path="url(#clip0_581_33520)">
<path d="M69 131.531C103.535 131.531 131.531 124.291 131.531 115.359C131.531 106.428 103.535 99.1875 69 99.1875C34.4649 99.1875 6.46875 106.428 6.46875 115.359C6.46875 124.291 34.4649 131.531 69 131.531Z" fill="#CACACB" fill-opacity="0.3"/>
<path d="M69 122.906C92.8173 122.906 112.125 119.527 112.125 115.359C112.125 111.191 92.8173 107.812 69 107.812C45.1827 107.812 25.875 111.191 25.875 115.359C25.875 119.527 45.1827 122.906 69 122.906Z" fill="#CACACB" fill-opacity="0.3"/>
<path d="M116.438 53.9057C116.442 45.3862 114.152 37.0227 109.808 29.6938C105.464 22.3649 99.2269 16.3411 91.7512 12.2551C84.2754 8.16917 75.8373 6.17185 67.3231 6.47301C58.809 6.77417 50.533 9.36268 43.3647 13.9666C36.1963 18.5706 30.4001 25.0201 26.5849 32.6376C22.7698 40.255 21.0764 48.7594 21.6828 57.2573C22.2892 65.7552 25.1729 73.9329 30.0311 80.9315C34.8892 87.9301 41.5424 93.4912 49.2919 97.0307L66.1538 113.936C66.9407 114.627 67.9525 115.008 69 115.008C70.0476 115.008 71.0593 114.627 71.8463 113.936L88.7081 97.0307C96.976 93.2544 103.985 87.1824 108.901 79.5371C113.817 71.8918 116.433 62.9951 116.438 53.9057Z" fill="#ABAEB5"/>
<path d="M69 92.7188C90.4356 92.7188 107.812 75.3418 107.812 53.9062C107.812 32.4707 90.4356 15.0938 69 15.0938C47.5644 15.0938 30.1875 32.4707 30.1875 53.9062C30.1875 75.3418 47.5644 92.7188 69 92.7188Z" fill="#E4E6EB"/>
<path d="M94.875 43.7706C94.574 41.6458 93.6457 39.6592 92.2091 38.0651C90.7724 36.4709 88.8927 35.3418 86.8106 34.8222C84.4545 34.2379 81.9701 34.4658 79.7596 35.4691C79.3626 32.9292 78.071 30.6147 76.1178 28.9432C74.1647 27.2716 71.6785 26.353 69.1078 26.353C66.537 26.353 64.0508 27.2716 62.0977 28.9432C60.1445 30.6147 58.853 32.9292 58.4559 35.4691C56.2454 34.4658 53.7611 34.2379 51.4049 34.8222C49.0308 35.4029 46.9245 36.7731 45.4313 38.708C43.9381 40.643 43.1467 43.0278 43.1868 45.4716C43.2269 47.9154 44.0961 50.273 45.652 52.1579C47.2079 54.0428 49.3581 55.3431 51.7499 55.8456V73.3113C51.7499 74.455 52.2043 75.5519 53.0131 76.3607C53.8218 77.1694 54.9187 77.6238 56.0624 77.6238H81.9375C83.0812 77.6238 84.1781 77.1694 84.9869 76.3607C85.7956 75.5519 86.25 74.455 86.25 73.3113V55.8456C88.9603 55.32 91.3657 53.7746 92.9704 51.5281C94.5751 49.2815 95.2567 46.5049 94.875 43.7706Z" fill="#FFB500"/>
<path d="M86.25 66.8438V73.3125C86.25 74.4562 85.7957 75.5532 84.9869 76.3619C84.1782 77.1707 83.0812 77.625 81.9375 77.625H56.0625C54.9188 77.625 53.8219 77.1707 53.0131 76.3619C52.2044 75.5532 51.75 74.4562 51.75 73.3125V66.8438H86.25Z" fill="#E5A301"/>
<path d="M59.2322 33.485C58.9718 33.3478 58.686 33.2653 58.3925 33.2427C58.099 33.2201 57.804 33.2578 57.5257 33.3535C57.2473 33.4493 56.9915 33.601 56.774 33.7993C56.5565 33.9977 56.3819 34.2385 56.261 34.5068C56.1401 34.7752 56.0754 35.0655 56.0709 35.3598C56.0665 35.6541 56.1223 35.9463 56.235 36.2182C56.3477 36.4901 56.5149 36.7361 56.7263 36.941C56.9377 37.1458 57.1887 37.3052 57.4641 37.4094C58.9766 38.0943 60.2593 39.2012 61.1582 40.5973C62.057 41.9934 62.5338 43.6193 62.5312 45.2797C62.5312 45.8516 62.7584 46.4 63.1628 46.8044C63.5672 47.2088 64.1156 47.4359 64.6875 47.4359C65.2594 47.4359 65.8078 47.2088 66.2122 46.8044C66.6166 46.4 66.8437 45.8516 66.8437 45.2797C66.8446 42.7897 66.1268 40.3524 64.7767 38.2603C63.4266 36.1681 61.5014 34.51 59.2322 33.485Z" fill="#E6A301"/>
</g>
<defs>
<clipPath id="clip0_581_33520">
<rect width="138" height="138" fill="white" transform="translate(0 0.390625)"/>
</clipPath>
</defs>
</svg>
