<svg width="44" height="36" viewBox="0 0 44 36" fill="none" xmlns="http://www.w3.org/2000/svg">
<rect x="16" y="2" width="11" height="13" rx="5.5" stroke="#FFB500" stroke-width="2"/>
<path d="M29.735 8H13.6305C10.6348 8 8.31147 10.6163 8.6656 13.5911L9.97513 24.5911C10.2745 27.1061 12.4073 29 14.9401 29H28.1635C30.6518 29 32.7614 27.1703 33.1133 24.7071L34.6847 13.7071C35.115 10.6949 32.7777 8 29.735 8Z" fill="#EA2D29"/>
<path d="M17.332 13.2534C17.25 13.2006 17.1672 13.1486 17.0771 13.1104C16.9797 13.0731 16.8896 13.043 16.7922 13.0284C16.3052 12.9309 15.7874 13.0885 15.4424 13.441C15.1575 13.7187 15 14.1012 15 14.4992C15 14.7014 15.0374 14.889 15.1121 15.0766C15.1875 15.2569 15.2996 15.4218 15.4424 15.5574C15.5771 15.6995 15.7427 15.8124 15.9221 15.8871C16.1096 15.9626 16.2971 16 16.5 16C16.8977 16 17.28 15.8424 17.5576 15.5574C17.6997 15.4218 17.8125 15.2569 17.8872 15.0766C17.9626 14.889 18 14.7014 18 14.4992C18 14.1012 17.8425 13.7187 17.5576 13.441C17.4895 13.3662 17.4148 13.3061 17.332 13.2534Z" fill="white"/>
<path d="M28.8872 13.921C28.8499 13.8308 28.7971 13.7487 28.7451 13.6659C28.6924 13.5839 28.6323 13.5084 28.5576 13.441C28.2126 13.0885 27.6948 12.9309 27.207 13.0284C27.1096 13.043 27.0122 13.0731 26.9221 13.1104C26.832 13.1486 26.75 13.2006 26.6672 13.2534C26.5852 13.3061 26.5098 13.3662 26.4424 13.441C26.3677 13.5084 26.3076 13.5839 26.2549 13.6659C26.1948 13.7487 26.1501 13.8308 26.1121 13.921C26.0747 14.0184 26.0447 14.1086 26.03 14.206C26.0073 14.3042 26 14.4017 26 14.4992C26 14.7014 26.0374 14.889 26.1121 15.0766C26.1875 15.2569 26.2996 15.4218 26.4424 15.5574C26.5098 15.6321 26.5852 15.6922 26.6672 15.745C26.75 15.8051 26.832 15.8498 26.9221 15.8871C27.0122 15.9245 27.1096 15.9546 27.207 15.97C27.3052 15.9927 27.4026 16 27.5 16C27.5974 16 27.6948 15.9927 27.7922 15.97C27.8896 15.9546 27.9871 15.9245 28.0771 15.8871C28.1599 15.8498 28.25 15.8051 28.332 15.745C28.4148 15.6922 28.4895 15.6321 28.5576 15.5574C28.6997 15.4218 28.8125 15.2569 28.8872 15.0766C28.9626 14.889 29 14.7014 29 14.4992C29 14.4017 28.9846 14.3042 28.97 14.206C28.9473 14.1086 28.9246 14.0184 28.8872 13.921Z" fill="white"/>
<ellipse cx="21.9889" cy="34.0708" rx="19.9889" ry="1.07083" fill="white" fill-opacity="0.1"/>
<ellipse cx="2.23478" cy="2.23478" rx="2.23478" ry="2.23478" transform="matrix(-1 0 0 1 43.3301 10)" fill="#FFB500"/>
<ellipse cx="1.67608" cy="1.67608" rx="1.67608" ry="1.67608" transform="matrix(-1 0 0 1 3.35254 18.5664)" fill="#6BB229"/>
</svg>
