<svg width="24" height="24" viewBox="0 0 24 24" fill="none" xmlns="http://www.w3.org/2000/svg">
<path d="M17.2416 22.75H6.76164C3.96164 22.75 2.18164 21.08 2.02164 18.29L1.50164 10.04C1.42164 8.79 1.85164 7.59 2.71164 6.68C3.56164 5.77 4.76164 5.25 6.00164 5.25C6.32164 5.25 6.63164 5.06 6.78164 4.76L7.50164 3.33C8.09164 2.16 9.57163 1.25 10.8616 1.25H13.1516C14.4416 1.25 15.9116 2.16 16.5016 3.32L17.2216 4.78C17.3716 5.06 17.6716 5.25 18.0016 5.25C19.2416 5.25 20.4416 5.77 21.2916 6.68C22.1516 7.6 22.5816 8.79 22.5016 10.04L21.9816 18.3C21.8016 21.13 20.0716 22.75 17.2416 22.75ZM10.8616 2.75C10.1216 2.75 9.18164 3.33 8.84164 4L8.12164 5.44C7.70164 6.25 6.89164 6.75 6.00164 6.75C5.16164 6.75 4.38163 7.09 3.80164 7.7C3.23164 8.31 2.94164 9.11 3.00164 9.94L3.52164 18.2C3.64163 20.22 4.73164 21.25 6.76164 21.25H17.2416C19.2616 21.25 20.3516 20.22 20.4816 18.2L21.0016 9.94C21.0516 9.11 20.7716 8.31 20.2016 7.7C19.6216 7.09 18.8416 6.75 18.0016 6.75C17.1116 6.75 16.3016 6.25 15.8816 5.46L15.1516 4C14.8216 3.34 13.8816 2.76 13.1416 2.76H10.8616V2.75Z" fill="white"/>
<path d="M11.7408 18.6011C10.5153 18.6011 9.28974 18.1372 8.3531 17.2005C8.10799 16.9554 7.88914 16.6841 7.68781 16.3602C7.49523 16.0538 7.59151 15.6511 7.89789 15.4585C8.20427 15.266 8.60696 15.3622 8.79954 15.6686C8.94836 15.9137 9.1059 16.1063 9.28098 16.2814C10.6378 17.6382 12.8437 17.6382 14.2005 16.2814C14.7257 15.7562 15.0584 15.0734 15.1722 14.3118C15.2248 13.9529 15.5573 13.6903 15.9162 13.7516C16.2751 13.8041 16.5203 14.1367 16.4765 14.4956C16.3277 15.5373 15.8638 16.474 15.1372 17.2093C14.1918 18.1372 12.9663 18.6011 11.7408 18.6011Z" fill="white"/>
<path d="M7.66341 13.882C7.6284 13.882 7.60214 13.882 7.56713 13.8732C7.20823 13.8207 6.95436 13.488 7.00689 13.1291C7.1557 12.0874 7.61964 11.1508 8.3462 10.4155C10.2107 8.55096 13.2483 8.55096 15.1215 10.4155C15.3666 10.6606 15.5855 10.932 15.7868 11.2646C15.9794 11.571 15.8831 11.9736 15.5767 12.1663C15.2704 12.3588 14.8677 12.2625 14.6751 11.9561C14.5263 11.7198 14.3687 11.5185 14.1936 11.3434C12.8368 9.98656 10.6309 9.98656 9.27408 11.3434C8.74886 11.8686 8.41624 12.5514 8.30244 13.313C8.26742 13.6456 7.9873 13.882 7.66341 13.882Z" fill="white"/>
<path d="M8.08084 18.9999C7.72194 18.9999 7.42432 18.7023 7.42432 18.3434V16.0061C7.42432 15.6472 7.72194 15.3496 8.08084 15.3496H10.4181C10.777 15.3496 11.0746 15.6472 11.0746 16.0061C11.0746 16.365 10.777 16.6627 10.4181 16.6627H8.73737V18.3434C8.73737 18.7023 8.4485 18.9999 8.08084 18.9999Z" fill="white"/>
<path d="M15.3965 12.2704H13.0594C12.7005 12.2704 12.4028 11.9728 12.4028 11.6139C12.4028 11.255 12.7005 10.9573 13.0594 10.9573H14.74V9.27664C14.74 8.91774 15.0376 8.62012 15.3965 8.62012C15.7554 8.62012 16.053 8.91774 16.053 9.27664V11.6139C16.053 11.9815 15.7554 12.2704 15.3965 12.2704Z" fill="white"/>
</svg>
