<svg width="18" height="18" viewBox="0 0 18 18" fill="none">
<path d="M12.5623 16.2947H5.45082C3.55082 16.2947 2.34296 15.1615 2.23439 13.2683L1.88154 7.67009C1.82725 6.82187 2.11904 6.00759 2.70261 5.39009C3.27939 4.77259 4.09368 4.41973 4.93511 4.41973C5.15225 4.41973 5.36261 4.2908 5.46439 4.08723L5.95296 3.11687C6.35332 2.32294 7.3576 1.70544 8.23297 1.70544H9.7869C10.6623 1.70544 11.6598 2.32294 12.0601 3.11009L12.5487 4.1008C12.6505 4.2908 12.854 4.41973 13.078 4.41973C13.9194 4.41973 14.7337 4.77259 15.3105 5.39009C15.894 6.01437 16.1858 6.82187 16.1315 7.67009L15.7787 13.2751C15.6565 15.1954 14.4826 16.2947 12.5623 16.2947ZM8.23297 2.7233C7.73083 2.7233 7.09296 3.11687 6.86225 3.57152L6.37368 4.54866C6.08868 5.0983 5.53904 5.43759 4.93511 5.43759C4.36511 5.43759 3.83581 5.6683 3.44225 6.08223C3.05546 6.49616 2.85868 7.03902 2.89939 7.60223L3.25225 13.2072C3.33367 14.5779 4.07332 15.2769 5.45082 15.2769H12.5623C13.933 15.2769 14.6726 14.5779 14.7608 13.2072L15.1137 7.60223C15.1476 7.03902 14.9576 6.49616 14.5708 6.08223C14.1773 5.6683 13.648 5.43759 13.078 5.43759C12.474 5.43759 11.9244 5.0983 11.6394 4.56223L11.144 3.57152C10.9201 3.12366 10.2823 2.73009 9.78011 2.73009H8.23297V2.7233Z" fill="currentColor"/>
<path d="M9.50888 6.79471H7.47316C7.19495 6.79471 6.96423 6.564 6.96423 6.28578C6.96423 6.00757 7.19495 5.77686 7.47316 5.77686H9.50888C9.78709 5.77686 10.0178 6.00757 10.0178 6.28578C10.0178 6.564 9.78709 6.79471 9.50888 6.79471Z" fill="currentColor"/>
<path d="M8.66045 13.5804C7.16081 13.5804 5.94617 12.3658 5.94617 10.8661C5.94617 9.3665 7.16081 8.15186 8.66045 8.15186C10.1601 8.15186 11.3747 9.3665 11.3747 10.8661C11.3747 12.3658 10.1601 13.5804 8.66045 13.5804ZM8.66045 9.16971C7.72402 9.16971 6.96402 9.92971 6.96402 10.8661C6.96402 11.8026 7.72402 12.5626 8.66045 12.5626C9.59688 12.5626 10.3569 11.8026 10.3569 10.8661C10.3569 9.92971 9.59688 9.16971 8.66045 9.16971Z" fill="currentColor"/>
</svg>
