<svg width="44" height="36" viewBox="0 0 44 36" fill="none" xmlns="http://www.w3.org/2000/svg">
<g clip-path="url(#clip0_718_20182)">
<path d="M25.5592 3.85699L9.72012 20.3606C9.11546 20.9906 8.14211 20.9906 7.5522 20.3606H7.53745C5.48752 18.2093 5.48752 14.7365 7.53745 12.6005L18.0821 1.61348C20.1468 -0.537828 23.4798 -0.537828 25.5445 1.61348C26.1491 2.21278 26.1491 3.24233 25.5592 3.85699Z" fill="#FFB500"/>
<path d="M34.1197 9.70065L29.2387 5.26348C28.5826 4.66701 27.5575 4.69912 26.9555 5.335L10.7796 22.0047C10.1616 22.626 10.1927 23.6183 10.8488 24.2148L15.7303 28.667C17.9702 30.6887 21.4805 30.5787 23.5896 28.4208L34.3429 17.3237C36.4825 15.1498 36.3757 11.7369 34.1197 9.70065ZM22.0259 23.669L20.204 25.5621C19.8274 25.9501 19.1906 25.9701 18.775 25.6069C18.3749 25.2432 18.3556 24.6268 18.7317 24.2237L20.5692 22.3301C20.9306 21.9576 21.583 21.9372 21.9826 22.2858C22.3827 22.6495 22.4029 23.296 22.0259 23.669ZM28.0053 17.5071L24.3308 21.3093C23.9538 21.6823 23.317 21.7023 22.9018 21.3541C22.5017 20.9904 22.4824 20.374 22.8585 19.9709L26.5485 16.1682C26.91 15.7957 27.5623 15.7753 27.9619 16.124C28.3625 16.5027 28.3818 17.1191 28.0053 17.5071Z" fill="#EA2D29"/>
</g>
<ellipse cx="20.9889" cy="34.0708" rx="19.9889" ry="1.07083" fill="#622D2C" fill-opacity="0.1"/>
<ellipse cx="2.23478" cy="2.23478" rx="2.23478" ry="2.23478" transform="matrix(-1 0 0 1 43.3301 12)" fill="#FFB500"/>
<ellipse cx="1.67608" cy="1.67608" rx="1.67608" ry="1.67608" transform="matrix(-1 0 0 1 3.35254 20.5664)" fill="#6BB229"/>
<defs>
<clipPath id="clip0_718_20182">
<rect width="30" height="30" fill="white" transform="translate(6)"/>
</clipPath>
</defs>
</svg>
