<svg width="24" height="24" viewBox="0 0 24 24" fill="none" xmlns="http://www.w3.org/2000/svg">
<g clip-path="url(#clip0_581_34281)">
<path d="M0.048996 18.9774C0.169657 18.4255 0.502052 17.9418 0.975834 17.6288C1.17498 17.4971 1.39855 17.4026 1.62337 17.2846C1.23635 14.6525 1.76803 12.1987 3.26474 9.97407C4.76146 7.74948 6.86061 6.31756 9.46451 5.62552C9.21402 4.46384 9.53339 3.50778 10.4915 2.82444C11.3507 2.21191 12.3076 2.14607 13.232 2.65733C14.4018 3.30402 14.7976 4.33463 14.5471 5.63111C17.1541 6.32502 19.2401 7.7501 20.7375 9.97345C22.2348 12.1968 22.7658 14.6519 22.3757 17.3039C22.4602 17.338 22.5391 17.366 22.6174 17.402C23.1323 17.6131 23.5492 18.0071 23.7866 18.507C24.0241 19.0069 24.0649 19.5767 23.9012 20.1049C23.6094 21.0678 22.7295 21.6853 21.6411 21.6853H2.35732C2.30284 21.6853 2.24835 21.6853 2.19324 21.6853C1.72592 21.6723 1.27413 21.5161 0.900015 21.2379C0.525904 20.9598 0.247858 20.5736 0.104113 20.1323C0.0671654 20.0167 0.0333366 19.8993 -0.00173187 19.7831V19.1265C0.0151749 19.0768 0.0370979 19.0284 0.048996 18.9774ZM12.6565 4.03955C12.47 3.90606 12.2468 3.83256 12.0169 3.829C11.7869 3.82543 11.5615 3.89197 11.3709 4.01961C11.1804 4.14726 11.0339 4.32986 10.9513 4.54273C10.8688 4.75561 10.8541 4.9885 10.9093 5.20993C10.9431 5.33417 10.9982 5.3702 11.1215 5.36026C11.4171 5.33603 11.7133 5.32237 12.007 5.30435C12.2989 5.32237 12.5876 5.33603 12.8756 5.36026C12.9978 5.3702 13.0541 5.33541 13.0879 5.21055C13.1413 4.99492 13.1288 4.7684 13.052 4.55986C12.9751 4.35131 12.8374 4.17018 12.6565 4.03955ZM17.0564 8.34833C14.0505 6.2952 9.963 6.29147 6.92511 8.36138C3.7269 10.5412 2.55771 14.2412 3.14951 17.2082H20.847C21.437 14.2785 20.2941 10.5611 17.0564 8.34833ZM1.54446 19.6962C1.6528 19.9931 1.87573 20.1565 2.19136 20.1931C2.26931 20.1985 2.3475 20.1996 2.42557 20.1963C8.8082 20.1963 15.1906 20.1963 21.5728 20.1963C21.7127 20.2018 21.8526 20.1867 21.988 20.1515C22.1535 20.0991 22.295 19.9904 22.3874 19.8446C22.4799 19.6987 22.5175 19.5251 22.4934 19.3545C22.4687 19.1842 22.3858 19.0275 22.2586 18.9106C22.1314 18.7937 21.9676 18.7236 21.7945 18.7122C21.7169 18.7072 21.6386 18.7122 21.5603 18.7122H11.9989C8.77252 18.7122 5.54613 18.7122 2.31974 18.7122C1.73796 18.7084 1.3591 19.1911 1.54446 19.6962Z" fill="currentColor"/>
<path d="M18.4346 14.1786C18.0889 14.232 17.8002 14.0196 17.6155 13.6568C17.3462 13.1281 17.0826 12.5877 16.7388 12.1037C16.2002 11.3459 15.4706 10.7861 14.6252 10.3848C14.3121 10.2351 14.1111 10.0164 14.1048 9.72695C14.1048 9.11691 14.6684 8.75225 15.1663 8.99577C15.5805 9.1941 15.9784 9.42446 16.3561 9.68471C17.6011 10.5544 18.4853 11.7155 19.0233 13.1288C19.2149 13.6282 18.9438 14.101 18.4346 14.1786Z" fill="currentColor"/>
</g>
<defs>
<clipPath id="clip0_581_34281">
<rect width="24" height="24" fill="white" transform="matrix(-1 0 0 1 24 0)"/>
</clipPath>
</defs>
</svg>
