<svg width="44" height="44" viewBox="0 0 44 30" fill="none" xmlns="http://www.w3.org/2000/svg">
<path d="M30.6249 10H13.3749C12.6249 10 11.9999 10.625 12.1249 11.375L14.1249 27.75C14.2499 29 15.3749 29.875 16.6249 29.875H27.2499C28.4999 29.875 29.6249 29 29.7499 27.75L31.7499 11.375C31.8749 10.625 31.3749 10 30.6249 10Z" fill="#EA2D29"/>
<path d="M32 2.5H25.75C25.75 1.125 24.625 0 23.25 0H20.75C19.375 0 18.25 1.125 18.25 2.5H12C10.625 2.5 9.5 3.625 9.5 5V6.25C9.5 7 10 7.5 10.75 7.5H33.25C34 7.5 34.5 7 34.5 6.25V5C34.5 3.625 33.375 2.5 32 2.5Z" fill="#FFB500"/>
<ellipse cx="21.9889" cy="34.0708" rx="19.9889" ry="1.07083" fill="#622D2C" fill-opacity="0.1"/>
<ellipse cx="2.23478" cy="12.2348" rx="2.23478" ry="2.23478" fill="#FFB500"/>
<ellipse cx="41.6536" cy="20.2425" rx="1.67608" ry="1.67608" fill="#6BB229"/>
</svg>
