<svg width="250" height="201" viewBox="0 0 250 201" fill="none" xmlns="http://www.w3.org/2000/svg">
<!-- <rect y="0.00683594" width="250" height="200" fill="white"/> -->
<path fill-rule="evenodd" clip-rule="evenodd" d="M63 134.007H154C154.515 134.007 155.017 133.951 155.5 133.846C155.983 133.951 156.485 134.007 157 134.007H209C212.866 134.007 216 130.873 216 127.007C216 123.141 212.866 120.007 209 120.007H203C199.134 120.007 196 116.873 196 113.007C196 109.141 199.134 106.007 203 106.007H222C225.866 106.007 229 102.873 229 99.0068C229 95.1408 225.866 92.0068 222 92.0068H200C203.866 92.0068 207 88.8728 207 85.0068C207 81.1408 203.866 78.0068 200 78.0068H136C139.866 78.0068 143 74.8728 143 71.0068C143 67.1408 139.866 64.0068 136 64.0068H79C75.134 64.0068 72 67.1408 72 71.0068C72 74.8728 75.134 78.0068 79 78.0068H39C35.134 78.0068 32 81.1408 32 85.0068C32 88.8728 35.134 92.0068 39 92.0068H64C67.866 92.0068 71 95.1408 71 99.0068C71 102.873 67.866 106.007 64 106.007H24C20.134 106.007 17 109.141 17 113.007C17 116.873 20.134 120.007 24 120.007H63C59.134 120.007 56 123.141 56 127.007C56 130.873 59.134 134.007 63 134.007ZM226 134.007C229.866 134.007 233 130.873 233 127.007C233 123.141 229.866 120.007 226 120.007C222.134 120.007 219 123.141 219 127.007C219 130.873 222.134 134.007 226 134.007Z" fill="#F3F7FF"/>
<path fill-rule="evenodd" clip-rule="evenodd" d="M92 140.007C79.8497 140.007 70 130.381 70 118.507C70 106.633 79.8497 97.0068 92 97.0068C92.5167 97.0068 93.0292 97.0242 93.537 97.0585C93.1842 95.0946 93 93.0722 93 91.0068C93 72.2292 108.222 57.0068 127 57.0068C141.991 57.0068 154.716 66.7088 159.239 80.1763C160.31 80.0643 161.398 80.0068 162.5 80.0068C179.345 80.0068 193 93.4383 193 110.007C193 125.747 180.675 138.734 165 139.985V140.007H108.508H92ZM103.996 140.007H97.0314H103.996Z" fill="white"/>
<path d="M103.996 140.007H97.0314M92 140.007C79.8497 140.007 70 130.381 70 118.507C70 106.633 79.8497 97.0068 92 97.0068C92.5167 97.0068 93.0292 97.0242 93.537 97.0585C93.1842 95.0946 93 93.0722 93 91.0068C93 72.2292 108.222 57.0068 127 57.0068C141.991 57.0068 154.716 66.7088 159.239 80.1763C160.31 80.0643 161.398 80.0068 162.5 80.0068C179.345 80.0068 193 93.4383 193 110.007C193 125.747 180.675 138.734 165 139.985V140.007H108.508H92Z" stroke="#1B1B1B" stroke-width="2.5" stroke-linecap="round"/>
<path fill-rule="evenodd" clip-rule="evenodd" d="M116.612 64.3495C116.612 96.5726 145.633 123.125 183 126.71C178.317 132.468 171.086 136.374 162.847 136.988V137.007H95.7431C87.6013 137.007 74 133.577 74 118.555C74 103.534 84.5742 100.104 95.7431 100.104C96.218 100.104 96.6891 100.118 97.1559 100.148C96.8316 98.4624 96.7746 96.7252 96.6623 94.9542C95.9038 82.991 101.123 67.9138 116.63 63.0068C116.618 63.4542 116.612 63.9013 116.612 64.3495ZM127.116 114.765C124.078 114.765 121.614 117.199 121.614 120.202C121.614 123.204 124.078 125.639 127.116 125.639C130.155 125.639 132.618 123.204 132.618 120.202C132.618 117.199 130.155 114.765 127.116 114.765Z" fill="#FFF3D7"/>
<path d="M127.5 126.007C130.538 126.007 133 123.544 133 120.507C133 117.469 130.538 115.007 127.5 115.007C124.462 115.007 122 117.469 122 120.507C122 123.544 124.462 126.007 127.5 126.007Z" stroke="#1B1B1B" stroke-width="2.5"/>
<path d="M112 109.007L119 103.513L112 98.2842" stroke="#1B1B1B" stroke-width="2.5" stroke-linecap="round" stroke-linejoin="round"/>
<path d="M143 109.007L136 103.513L143 98.2842" stroke="#1B1B1B" stroke-width="2.5" stroke-linecap="round" stroke-linejoin="round"/>
<path d="M137 67.0068C143.509 68.7294 148.648 73.8197 150.44 80.3" stroke="#1B1B1B" stroke-width="2.5" stroke-linecap="round"/>
<path d="M158 50.0068C159.657 50.0068 161 48.6637 161 47.0068C161 45.35 159.657 44.0068 158 44.0068C156.343 44.0068 155 45.35 155 47.0068C155 48.6637 156.343 50.0068 158 50.0068Z" stroke="#1B1B1B" stroke-width="2"/>
<path d="M189 66.0068C190.657 66.0068 192 64.6637 192 63.0068C192 61.35 190.657 60.0068 189 60.0068C187.343 60.0068 186 61.35 186 63.0068C186 64.6637 187.343 66.0068 189 66.0068Z" fill="#1B1B1B"/>
<path d="M165.757 57.7637L174.116 66.1219M174.243 57.7637L165.884 66.1219L174.243 57.7637Z" stroke="#1B1B1B" stroke-width="2.5" stroke-linecap="round" stroke-linejoin="round"/>
<path d="M71.4038 75.6035L77.4038 81.6035M77.4038 75.6035L71.4038 81.6035L77.4038 75.6035Z" stroke="#1B1B1B" stroke-width="2.5" stroke-linecap="round" stroke-linejoin="round"/>
<path d="M85 69.0068C86.6569 69.0068 88 67.6637 88 66.0068C88 64.35 86.6569 63.0068 85 63.0068C83.3431 63.0068 82 64.35 82 66.0068C82 67.6637 83.3431 69.0068 85 69.0068Z" fill="#1B1B1B"/>
</svg>
