<svg width="9" height="11" viewBox="0 0 9 11" fill="currentColor" xmlns="http://www.w3.org/2000/svg">
<path d="M8.74999 3.725C8.22499 1.415 6.20999 0.375 4.43999 0.375C4.43999 0.375 4.43999 0.375 4.43499 0.375C2.66999 0.375 0.649989 1.41 0.124989 3.72C-0.460011 6.3 1.11999 8.485 2.54999 9.86C3.07999 10.37 3.75999 10.625 4.43999 10.625C5.11999 10.625 5.79999 10.37 6.32499 9.86C7.75499 8.485 9.33499 6.305 8.74999 3.725ZM4.43999 6.23C3.56999 6.23 2.86499 5.525 2.86499 4.655C2.86499 3.785 3.56999 3.08 4.43999 3.08C5.30999 3.08 6.01499 3.785 6.01499 4.655C6.01499 5.525 5.30999 6.23 4.43999 6.23Z" fill="currentColor"/>
</svg>
