<svg width="25" height="24" viewBox="0 0 25 24" fill="none" xmlns="http://www.w3.org/2000/svg">
<path d="M22.6396 18.25H15.6396C15.2296 18.25 14.8896 17.91 14.8896 17.5C14.8896 17.09 15.2296 16.75 15.6396 16.75H22.6396C23.0496 16.75 23.3896 17.09 23.3896 17.5C23.3896 17.91 23.0496 18.25 22.6396 18.25Z" fill="currentColor"/>
<path d="M5.63965 18.25H2.63965C2.22965 18.25 1.88965 17.91 1.88965 17.5C1.88965 17.09 2.22965 16.75 2.63965 16.75H5.63965C6.04965 16.75 6.38965 17.09 6.38965 17.5C6.38965 17.91 6.04965 18.25 5.63965 18.25Z" fill="currentColor"/>
<path d="M22.6396 7.25H19.6396C19.2296 7.25 18.8896 6.91 18.8896 6.5C18.8896 6.09 19.2296 5.75 19.6396 5.75H22.6396C23.0496 5.75 23.3896 6.09 23.3896 6.5C23.3896 6.91 23.0496 7.25 22.6396 7.25Z" fill="currentColor"/>
<path d="M9.63965 7.25H2.63965C2.22965 7.25 1.88965 6.91 1.88965 6.5C1.88965 6.09 2.22965 5.75 2.63965 5.75H9.63965C10.0496 5.75 10.3896 6.09 10.3896 6.5C10.3896 6.91 10.0496 7.25 9.63965 7.25Z" fill="currentColor"/>
<path d="M13.6396 21.25H7.63965C5.91965 21.25 4.88965 20.22 4.88965 18.5V16.5C4.88965 14.78 5.91965 13.75 7.63965 13.75H13.6396C15.3596 13.75 16.3896 14.78 16.3896 16.5V18.5C16.3896 20.22 15.3596 21.25 13.6396 21.25ZM7.63965 15.25C6.74965 15.25 6.38965 15.61 6.38965 16.5V18.5C6.38965 19.39 6.74965 19.75 7.63965 19.75H13.6396C14.5296 19.75 14.8896 19.39 14.8896 18.5V16.5C14.8896 15.61 14.5296 15.25 13.6396 15.25H7.63965Z" fill="currentColor"/>
<path d="M17.6396 10.25H11.6396C9.91965 10.25 8.88965 9.22 8.88965 7.5V5.5C8.88965 3.78 9.91965 2.75 11.6396 2.75H17.6396C19.3596 2.75 20.3896 3.78 20.3896 5.5V7.5C20.3896 9.22 19.3596 10.25 17.6396 10.25ZM11.6396 4.25C10.7496 4.25 10.3896 4.61 10.3896 5.5V7.5C10.3896 8.39 10.7496 8.75 11.6396 8.75H17.6396C18.5296 8.75 18.8896 8.39 18.8896 7.5V5.5C18.8896 4.61 18.5296 4.25 17.6396 4.25H11.6396Z" fill="currentColor"/>
</svg>
