<svg width="24" height="24" viewBox="0 0 24 24" fill="none" xmlns="http://www.w3.org/2000/svg">
<path d="M4.8751 10.1249C2.9251 8.1749 2.9251 5.0999 4.8751 3.1499L13.2001 11.4749L15.9751 14.2499L20.2501 18.5249C21.0001 19.2749 21.0001 20.3999 20.2501 21.1499C19.5001 21.8999 18.1501 21.8999 17.4751 20.9999L14.4001 17.1749C13.6501 16.1999 12.3001 15.8999 11.1001 16.3499L4.8751 10.1249Z" stroke="currentColor" stroke-width="1.3" stroke-miterlimit="10" stroke-linecap="round" stroke-linejoin="round"/>
<path d="M15.9751 9.0749L20.0251 5.0249" stroke="currentColor" stroke-width="1.3" stroke-miterlimit="10" stroke-linecap="round" stroke-linejoin="round"/>
<path d="M14.325 12.6C14.625 12.525 14.85 12.525 15.15 12.45C16.125 12.375 17.25 11.85 18.375 10.725L22.05 7.05005" stroke="currentColor" stroke-width="1.3" stroke-miterlimit="10" stroke-linecap="round" stroke-linejoin="round"/>
<path d="M9.22503 14.4751L3.97503 18.7501C3.15003 19.3501 3.07503 20.5501 3.82503 21.2251C4.57503 21.9751 5.70003 21.8251 6.30003 21.0751L10.575 15.7501" stroke="currentColor" stroke-width="1.3" stroke-miterlimit="10" stroke-linecap="round" stroke-linejoin="round"/>
<path d="M18 3L14.25 6.675C13.125 7.8 12.525 8.925 12.525 9.9C12.525 10.2 12.45 10.425 12.375 10.725" stroke="currentColor" stroke-width="1.3" stroke-miterlimit="10" stroke-linecap="round" stroke-linejoin="round"/>
</svg>
