<svg width="30" height="30" viewBox="0 0 30 30" fill="none" xmlns="http://www.w3.org/2000/svg">
<path d="M18.75 28.4375H11.25C4.4625 28.4375 1.5625 25.5375 1.5625 18.75V11.25C1.5625 4.4625 4.4625 1.5625 11.25 1.5625H18.75C25.5375 1.5625 28.4375 4.4625 28.4375 11.25V18.75C28.4375 25.5375 25.5375 28.4375 18.75 28.4375ZM11.25 3.4375C5.4875 3.4375 3.4375 5.4875 3.4375 11.25V18.75C3.4375 24.5125 5.4875 26.5625 11.25 26.5625H18.75C24.5125 26.5625 26.5625 24.5125 26.5625 18.75V11.25C26.5625 5.4875 24.5125 3.4375 18.75 3.4375H11.25Z" fill="currentColor"/>
<path d="M11.25 13.4375C9.35 13.4375 7.8125 11.9 7.8125 10C7.8125 8.1 9.35 6.5625 11.25 6.5625C13.15 6.5625 14.6875 8.1 14.6875 10C14.6875 11.9 13.15 13.4375 11.25 13.4375ZM11.25 8.4375C10.3875 8.4375 9.6875 9.1375 9.6875 10C9.6875 10.8625 10.3875 11.5625 11.25 11.5625C12.1125 11.5625 12.8125 10.8625 12.8125 10C12.8125 9.1375 12.1125 8.4375 11.25 8.4375Z" fill="currentColor"/>
<path d="M3.33599 24.6281C3.03599 24.6281 2.73599 24.4781 2.56099 24.2156C2.27349 23.7906 2.38599 23.2031 2.82349 22.9156L8.98599 18.7781C10.336 17.8656 12.1985 17.9781 13.4234 19.0156L13.8359 19.3781C14.4609 19.9156 15.5234 19.9156 16.1359 19.3781L21.3359 14.9156C22.6609 13.7781 24.7484 13.7781 26.0859 14.9156L28.1234 16.6656C28.5109 17.0031 28.5609 17.5906 28.2234 17.9906C27.8859 18.3781 27.2984 18.4281 26.8984 18.0906L24.8609 16.3406C24.2359 15.8031 23.1734 15.8031 22.5484 16.3406L17.3484 20.8031C16.0234 21.9406 13.9359 21.9406 12.5984 20.8031L12.186 20.4406C11.611 19.9531 10.661 19.9031 10.0235 20.3406L3.86099 24.4781C3.69849 24.5781 3.51099 24.6281 3.33599 24.6281Z" fill="currentColor"/>
</svg>
