<svg width="28" height="29" viewBox="0 0 28 29" fill="none" xmlns="http://www.w3.org/2000/svg">
<path d="M14.0001 25.5819C13.6392 25.5819 13.29 25.5353 12.999 25.4304C8.55264 23.9034 1.4873 18.4831 1.4873 10.4751C1.4873 6.39539 4.78136 3.08496 8.832 3.08496C10.7991 3.08496 12.6382 3.85429 14.0001 5.22975C15.3619 3.85429 17.201 3.08496 19.1681 3.08496C23.2188 3.08496 26.5128 6.40705 26.5128 10.4751C26.5128 18.4948 19.4475 23.9034 15.0011 25.4304C14.7101 25.5353 14.3609 25.5819 14.0001 25.5819ZM8.832 4.83343C5.74746 4.83343 3.23327 7.36287 3.23327 10.4751C3.23327 18.4365 10.8806 22.8659 13.5694 23.7868C13.7789 23.8567 14.2328 23.8567 14.4424 23.7868C17.1195 22.8659 24.7785 18.4482 24.7785 10.4751C24.7785 7.36287 22.2643 4.83343 19.1798 4.83343C17.4105 4.83343 15.7693 5.66103 14.7101 7.09478C14.3842 7.53772 13.6392 7.53772 13.3133 7.09478C12.2308 5.64938 10.6012 4.83343 8.832 4.83343Z" fill="currentColor"/>
</svg>
