<svg width="43" height="46" viewBox="0 0 43 48" fill="none" xmlns="http://www.w3.org/2000/svg">
<path d="M32.0322 39.6964C33.6342 42.8272 32.3891 46.7594 28.9478 47.4844C26.7149 47.9549 24.4158 48.1067 22.1192 47.9262C17.6933 47.5783 13.4506 46.0096 9.86303 43.3945C6.27541 40.7794 3.48345 37.2205 1.79763 33.1134C0.111817 29.0064 -0.401779 24.5122 0.313959 20.1308C1.0297 15.7493 2.94672 11.6522 5.85183 8.29511C8.75695 4.93803 12.5363 2.45254 16.7696 1.11505C21.0029 -0.222446 25.5242 -0.359525 29.8308 0.719055C34.1373 1.79764 38.0603 4.0496 41.1634 7.22452L32.0556 16.1265C30.5992 14.6363 28.7579 13.5794 26.7367 13.0732C24.7154 12.5669 22.5933 12.6313 20.6064 13.259C18.6196 13.8868 16.8457 15.0533 15.4822 16.629C14.1187 18.2046 13.219 20.1276 12.883 22.184C12.5471 24.2404 12.7882 26.3497 13.5794 28.2774C14.3706 30.205 15.681 31.8754 17.3649 33.1027C19.0487 34.3301 21.04 35.0664 23.1173 35.2297C26.5372 35.4985 30.3982 36.5033 31.9609 39.5571L32.0322 39.6964Z" fill="#EA2D29"/>
<path d="M35.6831 44.2316C35.1913 44.9746 34.5208 45.5893 33.7058 45.9497C28.801 48.1188 23.2964 48.5874 18.0741 47.2568C12.4116 45.814 7.46999 42.3549 4.17615 37.5282L14.6957 30.3494C16.2417 32.6147 18.561 34.2383 21.2187 34.9154C23.5077 35.4987 25.9123 35.3454 28.0953 34.4934C28.7923 34.2213 29.5192 34.0153 30.267 33.9918C35.4938 33.8273 38.7296 39.6288 35.8434 43.9895L35.6831 44.2316Z" fill="#FFB500"/>
</svg>
