<svg width="22" height="22" viewBox="0 0 22 22" fill="none" xmlns="http://www.w3.org/2000/svg">
<g clip-path="url(#clip0_4739_1500)">
<path d="M11.1632 15.1623C13.3724 15.1623 15.1633 13.3714 15.1633 11.1622C15.1633 8.95301 13.3724 7.16211 11.1632 7.16211C8.95399 7.16211 7.16309 8.95301 7.16309 11.1622C7.16309 13.3714 8.95399 15.1623 11.1632 15.1623Z" fill="white"/>
<path d="M18.3627 11.9623H17.5627C17.3505 11.9623 17.147 11.8781 16.997 11.728C16.847 11.578 16.7627 11.3745 16.7627 11.1623C16.7627 10.9501 16.847 10.7467 16.997 10.5966C17.147 10.4466 17.3505 10.3623 17.5627 10.3623H18.3627C18.5749 10.3623 18.7784 10.4466 18.9284 10.5966C19.0785 10.7467 19.1628 10.9501 19.1628 11.1623C19.1628 11.3745 19.0785 11.578 18.9284 11.728C18.7784 11.8781 18.5749 11.9623 18.3627 11.9623Z" fill="white"/>
<path d="M4.76313 11.9623H3.96311C3.75093 11.9623 3.54744 11.8781 3.39741 11.728C3.24737 11.578 3.16309 11.3745 3.16309 11.1623C3.16309 10.9501 3.24737 10.7467 3.39741 10.5966C3.54744 10.4466 3.75093 10.3623 3.96311 10.3623H4.76313C4.9753 10.3623 5.17879 10.4466 5.32882 10.5966C5.47886 10.7467 5.56314 10.9501 5.56314 11.1623C5.56314 11.3745 5.47886 11.578 5.32882 11.728C5.17879 11.8781 4.9753 11.9623 4.76313 11.9623Z" fill="white"/>
<path d="M15.6923 7.43425C15.4936 7.42525 15.3053 7.34254 15.1643 7.20225C15.0153 7.05235 14.9316 6.84959 14.9316 6.63823C14.9316 6.42688 15.0153 6.22411 15.1643 6.07422L15.7323 5.5062C15.804 5.42246 15.8923 5.35444 15.9915 5.30642C16.0908 5.2584 16.1989 5.23141 16.3091 5.22716C16.4192 5.2229 16.5291 5.24147 16.6318 5.28169C16.7344 5.32191 16.8277 5.38292 16.9056 5.46088C16.9836 5.53885 17.0446 5.63209 17.0848 5.73475C17.1251 5.83741 17.1436 5.94728 17.1394 6.05746C17.1351 6.16764 17.1081 6.27575 17.0601 6.375C17.0121 6.47426 16.9441 6.56251 16.8603 6.63423L16.2923 7.20225C16.2138 7.28034 16.1199 7.34128 16.0166 7.38122C15.9134 7.42115 15.8029 7.43921 15.6923 7.43425Z" fill="white"/>
<path d="M6.07409 17.0501C5.9688 17.0508 5.86443 17.0306 5.76696 16.9908C5.66949 16.9509 5.58083 16.8923 5.50608 16.8181C5.35707 16.6682 5.27344 16.4655 5.27344 16.2541C5.27344 16.0428 5.35707 15.84 5.50608 15.6901L6.07409 15.1621C6.22714 15.031 6.424 14.9625 6.62535 14.9703C6.82669 14.9781 7.01769 15.0616 7.16017 15.204C7.30265 15.3465 7.38612 15.5375 7.39389 15.7389C7.40167 15.9402 7.33318 16.1371 7.20212 16.2901L6.6341 16.8581C6.47885 16.9914 6.27845 17.0601 6.07409 17.0501Z" fill="white"/>
<path d="M11.1633 5.56217C10.9511 5.56217 10.7476 5.47788 10.5976 5.32785C10.4476 5.17781 10.3633 4.97433 10.3633 4.76215V3.96213C10.3633 3.74995 10.4476 3.54646 10.5976 3.39643C10.7476 3.2464 10.9511 3.16211 11.1633 3.16211C11.3755 3.16211 11.579 3.2464 11.729 3.39643C11.879 3.54646 11.9633 3.74995 11.9633 3.96213V4.76215C11.9633 4.97433 11.879 5.17781 11.729 5.32785C11.579 5.47788 11.3755 5.56217 11.1633 5.56217Z" fill="white"/>
<path d="M11.1633 19.1618C10.9511 19.1618 10.7476 19.0775 10.5976 18.9275C10.4476 18.7774 10.3633 18.5739 10.3633 18.3618V17.5617C10.3633 17.3496 10.4476 17.1461 10.5976 16.996C10.7476 16.846 10.9511 16.7617 11.1633 16.7617C11.3755 16.7617 11.579 16.846 11.729 16.996C11.879 17.1461 11.9633 17.3496 11.9633 17.5617V18.3618C11.9633 18.5739 11.879 18.7774 11.729 18.9275C11.579 19.0775 11.3755 19.1618 11.1633 19.1618Z" fill="white"/>
<path d="M6.63485 7.43389C6.42497 7.43301 6.22385 7.34969 6.07484 7.20189L5.50682 6.63387C5.37576 6.48083 5.30727 6.28396 5.31505 6.08262C5.32283 5.88127 5.40629 5.69028 5.54877 5.5478C5.69125 5.40532 5.88225 5.32185 6.0836 5.31407C6.28494 5.3063 6.48181 5.37478 6.63485 5.50585L7.20287 6.07386C7.35187 6.22375 7.4355 6.42652 7.4355 6.63787C7.4355 6.84923 7.35187 7.05199 7.20287 7.20189C7.12811 7.27604 7.03946 7.3347 6.94198 7.37451C6.84451 7.41432 6.74014 7.4345 6.63485 7.43389Z" fill="white"/>
<path d="M16.2514 17.0504C16.0415 17.0496 15.8404 16.9662 15.6914 16.8184L15.1634 16.2504C15.0788 16.0984 15.0461 15.923 15.0702 15.7508C15.0943 15.5785 15.1738 15.4188 15.2968 15.2958C15.4198 15.1729 15.5795 15.0933 15.7518 15.0692C15.924 15.0451 16.0994 15.0779 16.2514 15.1624L16.8194 15.7304C16.9684 15.8803 17.0521 16.0831 17.0521 16.2944C17.0521 16.5058 16.9684 16.7085 16.8194 16.8584C16.6621 16.9937 16.4585 17.0625 16.2514 17.0504Z" fill="white"/>
</g>
<defs>
<clipPath id="clip0_4739_1500">
<rect width="16" height="16" fill="white" transform="translate(3.16309 3.16309)"/>
</clipPath>
</defs>
</svg>
