<svg width="12" height="13" viewBox="0 0 12 13" fill="none"
    xmlns="http://www.w3.org/2000/svg">
    <path d="M5.33333 1.83333H1.33333V11.1667H5.33333V1.83333ZM6.66667 1.83333V11.1667H10.6667V1.83333H6.66667ZM0.666667 0.5H11.3333C11.5101 0.5 11.6797 0.570238 11.8047 0.695262C11.9298 0.820286 12 0.989856 12 1.16667V11.8333C12 12.0101 11.9298 12.1797 11.8047 12.3047C11.6797 12.4298 11.5101 12.5 11.3333 12.5H0.666667C0.489856 12.5 0.320286 12.4298 0.195262 12.3047C0.0702379 12.1797 0 12.0101 0 11.8333V1.16667C0 0.989856 0.0702379 0.820286 0.195262 0.695262C0.320286 0.570238 0.489856 0.5 0.666667 0.5Z" fill="currentColor"/>
</svg>
