<svg width="44" height="44" viewBox="0 0 44 36" fill="none" xmlns="http://www.w3.org/2000/svg">
<ellipse cx="20.9889" cy="34.0708" rx="19.9889" ry="1.07083" fill="white" fill-opacity="0.1"/>
<path d="M21 1.875C16.3125 1.875 12.5625 5.625 12.5625 10.2188C12.5625 17.1562 20.0625 23.0625 20.4375 23.25C20.625 23.3438 20.8125 23.4375 21 23.4375C21.1875 23.4375 21.375 23.3438 21.5625 23.25C21.9375 22.9688 29.4375 17.1562 29.4375 10.2188C29.4375 5.625 25.6875 1.875 21 1.875ZM25.5 10.875C25.3125 11.1562 25.0312 11.25 24.75 11.25V14.0625C24.75 14.625 24.375 15 23.8125 15H18.1875C17.625 15 17.25 14.625 17.25 14.0625V11.25C16.9688 11.25 16.6875 11.1562 16.5 10.875C16.2187 10.5 16.3125 9.84375 16.6875 9.5625L20.4375 6.75C20.8125 6.46875 21.1875 6.46875 21.5625 6.75L25.3125 9.5625C25.6875 9.84375 25.7812 10.5 25.5 10.875Z" fill="#EA2D29"/>
<path d="M34.0311 26.8125L30.2811 19.3125C30.0936 18.9375 29.8124 18.75 29.4374 18.75H28.3124C26.0624 22.125 23.2499 24.375 22.6874 24.75C22.2186 25.125 21.6561 25.3125 20.9999 25.3125C20.3436 25.3125 19.7811 25.125 19.3124 24.75C18.8436 24.375 15.9374 22.125 13.6874 18.75H12.5624C12.1874 18.75 11.9061 18.9375 11.7186 19.3125L7.9686 26.8125C7.7811 27.0938 7.87485 27.4688 7.9686 27.75C8.06235 28.0312 8.5311 28.125 8.81235 28.125H33.1874C33.4686 28.125 33.8436 27.9375 34.0311 27.6562C34.2186 27.375 34.1249 27.0938 34.0311 26.8125Z" fill="#FFB500"/>
<ellipse cx="2.23478" cy="2.23478" rx="2.23478" ry="2.23478" transform="matrix(-1 0 0 1 43.3301 12)" fill="#FFB500"/>
<ellipse cx="1.67608" cy="1.67608" rx="1.67608" ry="1.67608" transform="matrix(-1 0 0 1 3.35254 20.5664)" fill="#6BB229"/>
</svg>
