<svg width="10" height="11" viewBox="0 0 10 11" fill="none" xmlns="http://www.w3.org/2000/svg">
<path d="M9.13036 3.35C8.60536 1.04 6.59036 0 4.82036 0C4.82036 0 4.82036 0 4.81536 0C3.05036 0 1.03036 1.035 0.50536 3.345C-0.0796398 5.925 1.50036 8.11 2.93036 9.485C3.46036 9.995 4.14036 10.25 4.82036 10.25C5.50036 10.25 6.18036 9.995 6.70536 9.485C8.13536 8.11 9.71536 5.93 9.13036 3.35ZM4.82036 5.855C3.95036 5.855 3.24536 5.15 3.24536 4.28C3.24536 3.41 3.95036 2.705 4.82036 2.705C5.69036 2.705 6.39536 3.41 6.39536 4.28C6.39536 5.15 5.69036 5.855 4.82036 5.855Z" fill="currentColor"/>
</svg>
