<svg width="76" height="76" viewBox="0 0 76 76" fill="none" xmlns="http://www.w3.org/2000/svg">
<rect opacity="0.1" width="76" height="76" rx="38" fill="#FFB500"/>
<ellipse cx="37.9889" cy="54.0708" rx="19.9889" ry="1.07083" fill="#622D2C" fill-opacity="0.1"/>
<path d="M38 21.875C33.3125 21.875 29.5625 25.625 29.5625 30.2188C29.5625 37.1562 37.0625 43.0625 37.4375 43.25C37.625 43.3438 37.8125 43.4375 38 43.4375C38.1875 43.4375 38.375 43.3438 38.5625 43.25C38.9375 42.9688 46.4375 37.1562 46.4375 30.2188C46.4375 25.625 42.6875 21.875 38 21.875ZM42.5 30.875C42.3125 31.1562 42.0312 31.25 41.75 31.25V34.0625C41.75 34.625 41.375 35 40.8125 35H35.1875C34.625 35 34.25 34.625 34.25 34.0625V31.25C33.9688 31.25 33.6875 31.1562 33.5 30.875C33.2187 30.5 33.3125 29.8438 33.6875 29.5625L37.4375 26.75C37.8125 26.4688 38.1875 26.4688 38.5625 26.75L42.3125 29.5625C42.6875 29.8438 42.7812 30.5 42.5 30.875Z" fill="#EA2D29"/>
<path d="M51.0312 46.8125L47.2812 39.3125C47.0937 38.9375 46.8125 38.75 46.4375 38.75H45.3125C43.0625 42.125 40.25 44.375 39.6875 44.75C39.2187 45.125 38.6562 45.3125 38 45.3125C37.3437 45.3125 36.7812 45.125 36.3125 44.75C35.8437 44.375 32.9375 42.125 30.6875 38.75H29.5625C29.1875 38.75 28.9062 38.9375 28.7187 39.3125L24.9687 46.8125C24.7812 47.0938 24.875 47.4688 24.9687 47.75C25.0625 48.0312 25.5312 48.125 25.8125 48.125H50.1875C50.4687 48.125 50.8437 47.9375 51.0312 47.6562C51.2187 47.375 51.125 47.0938 51.0312 46.8125Z" fill="#FFB500"/>
<ellipse cx="2.23478" cy="2.23478" rx="2.23478" ry="2.23478" transform="matrix(-1 0 0 1 60.33 32)" fill="#FFB500"/>
<ellipse cx="1.67608" cy="1.67608" rx="1.67608" ry="1.67608" transform="matrix(-1 0 0 1 20.3522 40.5664)" fill="#6BB229"/>
</svg>
