<svg width="17" height="17" viewBox="0 0 17 17" fill="none"
    xmlns="http://www.w3.org/2000/svg">
    <path d="M1.83337 3.83325L6.50004 1.83325L10.5 3.83325L14.702 2.03259C14.7528 2.01084 14.8081 2.00203 14.8631 2.00695C14.918 2.01186 14.9709 2.03035 15.017 2.06075C15.063 2.09115 15.1008 2.13251 15.127 2.18112C15.1531 2.22973 15.1668 2.28406 15.1667 2.33925V13.1666L10.5 15.1666L6.50004 13.1666L2.29804 14.9673C2.24732 14.989 2.19199 14.9978 2.13702 14.9929C2.08205 14.988 2.02916 14.9695 1.9831 14.9391C1.93704 14.9087 1.89924 14.8673 1.87311 14.8187C1.84698 14.7701 1.83333 14.7158 1.83337 14.6606V3.83325ZM10.4567 5.30259L6.45671 3.30259L3.16671 4.71259V13.1446L6.54337 11.6979L10.5434 13.6979L13.8334 12.2866V3.85525L10.4567 5.30192V5.30259Z" fill="currentColor"/>
</svg>
