<svg width="142" height="142" viewBox="0 0 142 142" fill="none" xmlns="http://www.w3.org/2000/svg">
<path d="M71 135.344C106.536 135.344 135.344 127.894 135.344 118.704C135.344 109.513 106.536 102.063 71 102.063C35.4639 102.063 6.65625 109.513 6.65625 118.704C6.65625 127.894 35.4639 135.344 71 135.344Z" fill="#1F1F23"/>
<path d="M71 126.469C95.5076 126.469 115.375 122.992 115.375 118.704C115.375 114.415 95.5076 110.938 71 110.938C46.4924 110.938 26.625 114.415 26.625 118.704C26.625 122.992 46.4924 126.469 71 126.469Z" fill="#35353C"/>
<path d="M119.813 55.4689C119.817 46.7025 117.461 38.0966 112.991 30.5553C108.521 23.0139 102.103 16.8155 94.4106 12.6111C86.7182 8.40669 78.0355 6.35149 69.2745 6.66137C60.5136 6.97126 51.9978 9.6348 44.6216 14.3722C37.2455 19.1096 31.2813 25.746 27.3555 33.5843C23.4298 41.4226 21.6874 50.1735 22.3113 58.9177C22.9353 67.6619 25.9026 76.0766 30.9015 83.2781C35.9005 90.4795 42.7466 96.2018 50.7206 99.8439L68.0713 117.239C68.8811 117.95 69.9221 118.343 71 118.343C72.0779 118.343 73.119 117.95 73.9288 117.239L91.2794 99.8439C99.7869 95.9582 106.999 89.7102 112.057 81.8432C117.116 73.9763 119.808 64.8218 119.813 55.4689Z" fill="#828998"/>
<path d="M71 95.4067C93.0569 95.4067 110.938 77.5261 110.938 55.4692C110.938 33.4124 93.0569 15.5317 71 15.5317C48.9431 15.5317 31.0625 33.4124 31.0625 55.4692C31.0625 77.5261 48.9431 95.4067 71 95.4067Z" fill="#0D0D0F"/>
<path d="M56.9553 33.2817H85.0447C87.7927 33.2817 90.4282 34.3734 92.3714 36.3166C94.3146 38.2597 95.4062 40.8952 95.4062 43.6433V49.3011C95.4062 49.7601 95.2239 50.2003 94.8994 50.5249C94.5748 50.8494 94.1346 51.0317 93.6756 51.0317H48.3244C48.0971 51.0317 47.8721 50.987 47.6621 50.9C47.4521 50.813 47.2613 50.6856 47.1006 50.5249C46.9399 50.3641 46.8125 50.1734 46.7255 49.9634C46.6385 49.7534 46.5938 49.5284 46.5938 49.3011V43.6433C46.5938 40.8952 47.6854 38.2597 49.6286 36.3166C51.5718 34.3734 54.2073 33.2817 56.9553 33.2817Z" fill="#FFB500"/>
<path d="M48.3687 68.7817H93.6313C94.102 68.7817 94.5535 68.9687 94.8864 69.3016C95.2192 69.6345 95.4062 70.086 95.4062 70.5567V72.3317C95.4062 73.744 94.8452 75.0985 93.8466 76.0971C92.848 77.0957 91.4935 77.6567 90.0812 77.6567H51.9187C50.5065 77.6567 49.152 77.0957 48.1534 76.0971C47.1548 75.0985 46.5938 73.744 46.5938 72.3317V70.5567C46.5938 70.086 46.7808 69.6345 47.1136 69.3016C47.4465 68.9687 47.898 68.7817 48.3687 68.7817Z" fill="#FFB500"/>
<path d="M95.4062 55.468C92.7004 55.4374 90.0725 56.3737 87.9956 58.1083C86.6633 59.2665 84.9574 59.9043 83.192 59.9043C81.4267 59.9043 79.7208 59.2665 78.3884 58.1083C76.3001 56.4015 73.686 55.4692 70.9889 55.4692C68.2918 55.4692 65.6777 56.4015 63.5894 58.1083C62.2675 59.2914 60.5484 59.933 58.7747 59.9055C57.0143 59.9328 55.3092 59.2904 54.0044 58.1083C51.9275 56.3737 49.2996 55.4374 46.5938 55.468C46.0053 55.468 45.441 55.7018 45.0249 56.1179C44.6088 56.534 44.375 57.0983 44.375 57.6868C44.375 58.2752 44.6088 58.8396 45.0249 59.2557C45.441 59.6718 46.0053 59.9055 46.5938 59.9055C48.361 59.877 50.0735 60.5192 51.3862 61.7027C53.4746 63.4095 56.0887 64.3418 58.7858 64.3418C61.4829 64.3418 64.097 63.4095 66.1853 61.7027C67.5176 60.5445 69.2236 59.9067 70.9889 59.9067C72.7543 59.9067 74.4602 60.5445 75.7925 61.7027C77.8843 63.4112 80.5022 64.3445 83.2031 64.3445C85.904 64.3445 88.5219 63.4112 90.6138 61.7027C91.9242 60.5153 93.6382 59.8726 95.4062 59.9055C95.9947 59.9055 96.559 59.6718 96.9751 59.2557C97.3912 58.8396 97.625 58.2752 97.625 57.6868C97.625 57.0983 97.3912 56.534 96.9751 56.1179C96.559 55.7018 95.9947 55.468 95.4062 55.468Z" fill="white"/>
</svg>
