<svg width="25" height="25" viewBox="0 0 25 25" fill="none" xmlns="http://www.w3.org/2000/svg">
<path d="M12.1451 23.6713C11.4551 23.6713 10.8051 23.3213 10.3451 22.7113L8.84514 20.7113C8.81514 20.6713 8.69514 20.6213 8.64514 20.6113H8.14514C3.97514 20.6113 1.39514 19.4813 1.39514 13.8613V8.86133C1.39514 4.44133 3.72514 2.11133 8.14514 2.11133H16.1451C20.5651 2.11133 22.8951 4.44133 22.8951 8.86133V13.8613C22.8951 18.2813 20.5651 20.6113 16.1451 20.6113H15.6451C15.5651 20.6113 15.4951 20.6513 15.4451 20.7113L13.9451 22.7113C13.4851 23.3213 12.8351 23.6713 12.1451 23.6713ZM8.14514 3.61133C4.56514 3.61133 2.89514 5.28133 2.89514 8.86133V13.8613C2.89514 18.3813 4.44514 19.1113 8.14514 19.1113H8.64514C9.15514 19.1113 9.73514 19.4013 10.0451 19.8113L11.5451 21.8113C11.8951 22.2713 12.3951 22.2713 12.7451 21.8113L14.2451 19.8113C14.5751 19.3713 15.0951 19.1113 15.6451 19.1113H16.1451C19.7251 19.1113 21.3951 17.4413 21.3951 13.8613V8.86133C21.3951 5.28133 19.7251 3.61133 16.1451 3.61133H8.14514Z" fill="currentColor"/>
<path d="M12.1451 12.8613C11.5851 12.8613 11.1451 12.4113 11.1451 11.8613C11.1451 11.3113 11.5951 10.8613 12.1451 10.8613C12.6951 10.8613 13.1451 11.3113 13.1451 11.8613C13.1451 12.4113 12.7051 12.8613 12.1451 12.8613Z" fill="currentColor"/>
<path d="M16.1451 12.8613C15.5851 12.8613 15.1451 12.4113 15.1451 11.8613C15.1451 11.3113 15.5951 10.8613 16.1451 10.8613C16.6951 10.8613 17.1451 11.3113 17.1451 11.8613C17.1451 12.4113 16.7051 12.8613 16.1451 12.8613Z" fill="currentColor"/>
<path d="M8.14514 12.8613C7.58514 12.8613 7.14514 12.4113 7.14514 11.8613C7.14514 11.3113 7.59514 10.8613 8.14514 10.8613C8.69514 10.8613 9.14514 11.3113 9.14514 11.8613C9.14514 12.4113 8.70514 12.8613 8.14514 12.8613Z" fill="currentColor"/>
</svg>
