<svg width="17" height="16" viewBox="0 0 17 16" fill="none" xmlns="http://www.w3.org/2000/svg">
<path d="M16.245 15.875C16.1449 15.8763 16.0463 15.851 15.9593 15.8016C15.8722 15.7521 15.8 15.6804 15.75 15.5937C15.0008 14.3175 13.933 13.2577 12.6511 12.5181C11.3693 11.7786 9.91732 11.3847 8.43747 11.375V14.75C8.43691 14.861 8.4035 14.9694 8.34143 15.0615C8.27937 15.1536 8.19144 15.2253 8.08872 15.2675C7.98628 15.3105 7.87338 15.3223 7.76426 15.3013C7.65514 15.2803 7.55469 15.2274 7.47559 15.1493L0.725591 8.39933C0.672868 8.34704 0.631022 8.28483 0.602464 8.21628C0.573907 8.14773 0.559204 8.07421 0.559204 7.99996C0.559204 7.9257 0.573907 7.85218 0.602464 7.78363C0.631022 7.71509 0.672868 7.65287 0.725591 7.60058L7.47559 0.850581C7.55469 0.77253 7.65514 0.719657 7.76426 0.698634C7.87338 0.677611 7.98628 0.68938 8.08872 0.732456C8.19144 0.774655 8.27937 0.846316 8.34143 0.938409C8.4035 1.0305 8.43691 1.1389 8.43747 1.24996V4.68683C10.7646 4.98574 12.9037 6.12062 14.4561 7.87995C16.0085 9.63929 16.8682 11.9031 16.875 14.2493C16.8736 14.6255 16.8492 15.0012 16.8018 15.3743C16.7878 15.4914 16.7373 15.601 16.6576 15.6878C16.5779 15.7746 16.4729 15.8342 16.3575 15.8581L16.245 15.875ZM8.15622 10.25C9.59082 10.2294 11.0128 10.5205 12.3239 11.1032C13.635 11.6859 14.8039 12.5463 15.75 13.625C15.5807 11.5844 14.69 9.67094 13.2375 8.22776C11.7851 6.78457 9.86592 5.90611 7.82434 5.74996C7.6841 5.73728 7.55371 5.67247 7.45893 5.56832C7.36416 5.46418 7.31189 5.32827 7.31247 5.18746V2.60558L1.91809 7.99996L7.31247 13.3943V10.8125C7.31247 10.6633 7.37173 10.5202 7.47722 10.4147C7.58271 10.3092 7.72578 10.25 7.87497 10.25H8.17872H8.15622Z" fill="currentColor"/>
</svg>
