<svg width="25" height="24" viewBox="0 0 25 24" fill="none" xmlns="http://www.w3.org/2000/svg">
<path d="M12.1396 21.75C6.48965 21.75 1.88965 17.15 1.88965 11.5C1.88965 5.85 6.48965 1.25 12.1396 1.25C17.7896 1.25 22.3896 5.85 22.3896 11.5C22.3896 17.15 17.7896 21.75 12.1396 21.75ZM12.1396 2.75C7.30965 2.75 3.38965 6.68 3.38965 11.5C3.38965 16.32 7.30965 20.25 12.1396 20.25C16.9696 20.25 20.8896 16.32 20.8896 11.5C20.8896 6.68 16.9696 2.75 12.1396 2.75Z" fill="currentColor"/>
<path d="M22.64 22.75C22.45 22.75 22.26 22.68 22.11 22.53L18.5798 19.06C18.2898 18.77 18.2898 18.29 18.5798 18C18.8698 17.71 19.3498 17.71 19.6398 18L23.17 21.4699C23.46 21.7599 23.46 22.24 23.17 22.53C23.02 22.68 22.83 22.75 22.64 22.75Z" fill="currentColor"/>
</svg>
