<svg width="15" height="14" viewBox="0 0 15 14" fill="none" xmlns="http://www.w3.org/2000/svg">
<path d="M6.74062 1.38799C7.03998 0.466679 8.34339 0.466678 8.64274 1.38799L9.57989 4.27223C9.71376 4.68426 10.0977 4.96322 10.5309 4.96322H13.5636C14.5323 4.96322 14.9351 6.20283 14.1514 6.77223L11.6979 8.55479C11.3474 8.80944 11.2008 9.26081 11.3346 9.67283L12.2718 12.5571C12.5711 13.4784 11.5167 14.2445 10.733 13.6751L8.27947 11.8925C7.92898 11.6379 7.45438 11.6379 7.1039 11.8925L4.65041 13.6751C3.8667 14.2445 2.81222 13.4784 3.11157 12.5571L4.04872 9.67283C4.18259 9.26081 4.03593 8.80944 3.68545 8.5548L1.23196 6.77223C0.448247 6.20283 0.851022 4.96322 1.81975 4.96322H4.85242C5.28565 4.96322 5.6696 4.68426 5.80348 4.27223L6.74062 1.38799Z" fill="currentColor"/>
</svg>
