<svg width="60" height="60" viewBox="0 0 60 60" fill="none" xmlns="http://www.w3.org/2000/svg">
<rect opacity="0.1" width="60" height="60" rx="30" fill="#FFB500"/>
<ellipse cx="29.9472" cy="46.0192" rx="14.8789" ry="0.845394" fill="#622D2C" fill-opacity="0.1"/>
<circle cx="1.57895" cy="1.57895" r="1.57895" transform="matrix(-1 0 0 1 51.3145 28.5947)" fill="#FFB500"/>
<circle cx="1.57895" cy="1.57895" r="1.57895" transform="matrix(-1 0 0 1 12.6309 35.7)" fill="#6BB229"/>
<circle cx="30.6792" cy="27.5146" r="11.2573" fill="white"/>
<path d="M36.3147 23.8861C36.3198 24.1251 36.2812 24.3628 36.2015 24.5841C36.1217 24.8055 36.0024 25.0057 35.851 25.1724C33.3177 28.0524 30.7852 30.932 28.2533 33.8112C28.0963 33.9903 28.0098 33.9951 27.8518 33.8112C26.6325 32.4126 25.3986 31.0307 24.1814 29.6309C23.5228 28.8725 23.5228 27.7809 24.1509 27.069C24.779 26.3572 25.7379 26.3655 26.4091 27.1013C26.8812 27.6196 27.3523 28.1404 27.798 28.6874C28.0025 28.9382 28.1142 28.9155 28.3154 28.6814C30.0619 26.6797 31.8154 24.6863 33.5759 22.7013C34.3283 21.8497 35.4148 21.9225 36.0112 22.8434C36.2117 23.1432 36.3185 23.51 36.3147 23.8861Z" fill="#EA2D29"/>
<path d="M30.3603 41.8419C28.5388 41.8352 26.7367 41.4698 25.0571 40.7666C23.3776 40.0634 21.8539 39.0361 20.5734 37.7439C19.2929 36.4517 18.2808 34.9199 17.5952 33.2365C16.9097 31.553 16.5642 29.7511 16.5786 27.9341C16.6201 20.3502 22.8384 14.1793 30.4055 14.2106C38.0825 14.2456 44.2602 20.4608 44.2094 28.0971C44.1577 35.716 37.945 41.8796 30.3603 41.8419ZM29.7047 17.7105C29.3225 17.6995 28.9504 17.775 28.5765 17.8367C23.9093 18.6076 20.2135 22.7551 20.0464 27.4763C19.9125 31.2618 21.399 34.2985 24.4726 36.5173C25.999 37.6259 27.8186 38.2621 29.7047 38.3465C30.1615 38.4408 30.6329 38.4408 31.0897 38.3465C31.4575 38.3429 31.8241 38.3021 32.1837 38.2249C37.4593 37.3251 41.1968 32.4748 40.7046 27.1356C40.4009 23.8419 38.8424 21.2648 36.1196 19.4052C34.635 18.3821 32.8922 17.7955 31.0897 17.7124C30.6328 17.6187 30.1617 17.6184 29.7047 17.7115V17.7105Z" fill="#08CB66"/>
</svg>
