<svg width="24" height="20" viewBox="0 0 24 20" fill="none" xmlns="http://www.w3.org/2000/svg">
<path d="M23.3163 15.2293C23.3585 15.1283 23.3585 15.0141 23.3163 14.9131C23.2741 14.8117 23.1938 14.7314 23.0924 14.6892C23.0419 14.6681 22.9881 14.6573 22.9343 14.6573H21.8996C21.8992 9.42408 17.766 5.15845 12.5858 4.942C12.5858 4.93827 12.5878 4.93496 12.5878 4.93165V3.82955C13.1846 3.65035 13.6221 3.10405 13.6225 2.4485C13.6221 1.6481 12.9744 1.00041 12.174 1C11.3736 1.00041 10.7259 1.6481 10.7255 2.4485C10.7259 3.10405 11.1633 3.65035 11.7601 3.82955V4.93165C11.7601 4.93538 11.7622 4.93869 11.7622 4.942C6.58191 5.15845 2.44871 9.42408 2.4483 14.6573H1.41365C1.35985 14.6573 1.30605 14.6681 1.25556 14.6892C1.15416 14.7314 1.07387 14.8117 1.03166 14.9131C0.989447 15.0141 0.989447 15.1283 1.03166 15.2293C1.05277 15.2802 1.08298 15.3261 1.12147 15.3642L3.55413 17.7968C3.8521 18.0928 4.24899 18.3295 4.67278 18.5066C5.09782 18.6813 5.54602 18.7942 5.96609 18.7959H18.3818C18.8019 18.7942 19.2501 18.6813 19.6751 18.5066C20.0989 18.3295 20.4958 18.0928 20.7938 17.7968L23.2265 15.3642C23.2649 15.3261 23.2952 15.2802 23.3163 15.2293ZM11.5532 2.4485C11.554 2.10583 11.8313 1.82854 12.174 1.82772C12.5166 1.82854 12.7939 2.10583 12.7947 2.4485C12.7939 2.79118 12.5166 3.06846 12.174 3.06929C11.8313 3.06846 11.554 2.79118 11.5532 2.4485ZM5.88249 8.36585C7.49364 6.7547 9.71606 5.75937 12.174 5.75937C14.6319 5.75937 16.8543 6.7547 18.4654 8.36585C20.0766 9.977 21.0715 12.1994 21.0719 14.6573H3.27601C3.27601 12.1994 4.27134 9.977 5.88249 8.36585ZM20.2086 17.2117C20.024 17.3983 19.7025 17.6003 19.3581 17.7418C19.015 17.8854 18.645 17.9698 18.3818 17.9682H5.96609C5.70288 17.9698 5.33289 17.8854 4.9898 17.7418C4.64547 17.6003 4.32432 17.3983 4.13932 17.2117L2.4127 15.485H21.9352L20.2086 17.2117Z" fill="currentColor" stroke="currentColor" stroke-width="0.5"/>
</svg>
