<svg width="20" height="20" viewBox="0 0 20 20" fill="none" xmlns="http://www.w3.org/2000/svg">
<path d="M17.4964 5.60546C17.4797 5.60546 17.4547 5.60546 17.4297 5.60546C13.0214 5.1638 8.62141 4.99713 4.26306 5.4388L2.56306 5.60546C2.21306 5.6388 1.90472 5.3888 1.87139 5.0388C1.83806 4.6888 2.08806 4.3888 2.42972 4.35547L4.12972 4.1888C8.56308 3.7388 13.0547 3.9138 17.5547 4.35547C17.8964 4.3888 18.1464 4.69713 18.1131 5.0388C18.0881 5.3638 17.8131 5.60546 17.4964 5.60546Z" fill="currentColor"/>
<path d="M7.08387 4.76675C7.05054 4.76675 7.0172 4.76675 6.97554 4.75841C6.6422 4.70008 6.40887 4.37508 6.4672 4.04175L6.65054 2.95008C6.78387 2.15008 6.9672 1.04175 8.90884 1.04175H11.0922C13.0422 1.04175 13.2255 2.19175 13.3505 2.95841L13.5338 4.04175C13.5922 4.38341 13.3588 4.70842 13.0255 4.75841C12.6838 4.81675 12.3588 4.58341 12.3088 4.25008L12.1255 3.16675C12.0088 2.44175 11.9838 2.30008 11.1005 2.30008H8.91717C8.03387 2.30008 8.0172 2.41675 7.8922 3.15841L7.70054 4.24175C7.65054 4.55008 7.38387 4.76675 7.08387 4.76675Z" fill="currentColor"/>
<path d="M12.6752 18.9596H7.32524C4.41691 18.9596 4.30024 17.3513 4.20857 16.0513L3.66691 7.65961C3.64191 7.31794 3.90857 7.01795 4.25024 6.99295C4.60024 6.97628 4.89191 7.23462 4.91691 7.57628L5.45857 15.968C5.55024 17.2346 5.58357 17.7096 7.32524 17.7096H12.6752C14.4252 17.7096 14.4586 17.2346 14.5419 15.968L15.0836 7.57628C15.1086 7.23462 15.4086 6.97628 15.7502 6.99295C16.0919 7.01795 16.3586 7.30961 16.3336 7.65961L15.7919 16.0513C15.7002 17.3513 15.5836 18.9596 12.6752 18.9596Z" fill="currentColor"/>
<path d="M11.3817 14.375H8.60671C8.26502 14.375 7.98169 14.0917 7.98169 13.75C7.98169 13.4083 8.26502 13.125 8.60671 13.125H11.3817C11.7234 13.125 12.0067 13.4083 12.0067 13.75C12.0067 14.0917 11.7234 14.375 11.3817 14.375Z" fill="currentColor"/>
<path d="M12.0834 11.0417H7.91675C7.57508 11.0417 7.29175 10.7584 7.29175 10.4167C7.29175 10.0751 7.57508 9.79175 7.91675 9.79175H12.0834C12.4251 9.79175 12.7084 10.0751 12.7084 10.4167C12.7084 10.7584 12.4251 11.0417 12.0834 11.0417Z" fill="currentColor"/>
</svg>
