<svg width="18" height="19" viewBox="0 0 18 19" fill="none" xmlns="http://www.w3.org/2000/svg">
<path d="M9.08986 10.9169C9.07486 10.9169 9.05236 10.9169 9.03736 10.9169C9.01486 10.9169 8.98486 10.9169 8.96236 10.9169C7.25986 10.8644 5.98486 9.53689 5.98486 7.90189C5.98486 6.23689 7.34236 4.87939 9.00736 4.87939C10.6724 4.87939 12.0299 6.23689 12.0299 7.90189C12.0224 9.54439 10.7399 10.8644 9.11236 10.9169C9.09736 10.9169 9.09736 10.9169 9.08986 10.9169ZM8.99986 5.99689C7.94986 5.99689 7.10236 6.85189 7.10236 7.89439C7.10236 8.92189 7.90486 9.75439 8.92486 9.79189C8.94736 9.78439 9.02236 9.78439 9.09736 9.79189C10.1024 9.73939 10.8899 8.91439 10.8974 7.89439C10.8974 6.85189 10.0499 5.99689 8.99986 5.99689Z" fill="white"/>
<path d="M9.00012 17.8323C6.98262 17.8323 5.05512 17.0823 3.56262 15.7173C3.42762 15.5973 3.36762 15.4173 3.38262 15.2448C3.48012 14.3523 4.03512 13.5198 4.95762 12.9048C7.19262 11.4198 10.8151 11.4198 13.0426 12.9048C13.9651 13.5273 14.5201 14.3523 14.6176 15.2448C14.6401 15.4248 14.5726 15.5973 14.4376 15.7173C12.9451 17.0823 11.0176 17.8323 9.00012 17.8323ZM4.56012 15.0948C5.80512 16.1373 7.37262 16.7073 9.00012 16.7073C10.6276 16.7073 12.1951 16.1373 13.4401 15.0948C13.3051 14.6373 12.9451 14.1948 12.4126 13.8348C10.5676 12.6048 7.44012 12.6048 5.58012 13.8348C5.04762 14.1948 4.69512 14.6373 4.56012 15.0948Z" fill="white"/>
<path d="M9 17.832C4.5525 17.832 0.9375 14.217 0.9375 9.76953C0.9375 5.32203 4.5525 1.70703 9 1.70703C13.4475 1.70703 17.0625 5.32203 17.0625 9.76953C17.0625 14.217 13.4475 17.832 9 17.832ZM9 2.83203C5.175 2.83203 2.0625 5.94453 2.0625 9.76953C2.0625 13.5945 5.175 16.707 9 16.707C12.825 16.707 15.9375 13.5945 15.9375 9.76953C15.9375 5.94453 12.825 2.83203 9 2.83203Z" fill="white"/>
</svg>
