<svg width="24" height="25" viewBox="0 0 24 25" fill="none" xmlns="http://www.w3.org/2000/svg">
<g clip-path="url(#clip0_459_5808)">
<path d="M12.4226 24.0703C11.6736 24.0703 10.9135 23.8806 10.2428 23.49L3.60248 19.662C2.26102 18.8808 1.42261 17.4412 1.42261 15.8899V8.25631C1.42261 6.70504 2.26102 5.26538 3.60248 4.48416L10.2428 0.656223C11.5842 -0.124991 13.2499 -0.124991 14.6025 0.656223L21.2427 4.48416C22.5842 5.26538 23.4226 6.70504 23.4226 8.25631V15.8899C23.4226 17.4412 22.5842 18.8808 21.2427 19.662L14.6025 23.49C13.9318 23.8806 13.1716 24.0703 12.4226 24.0703ZM12.4226 1.7499C11.9643 1.7499 11.4948 1.87266 11.0812 2.10703L4.44089 5.93498C3.61366 6.41487 3.09943 7.29653 3.09943 8.25631V15.8899C3.09943 16.8385 3.61366 17.7313 4.44089 18.2112L11.0812 22.0392C11.9084 22.519 12.9369 22.519 13.7641 22.0392L20.4043 18.2112C21.2316 17.7313 21.7458 16.8497 21.7458 15.8899V8.25631C21.7458 7.30769 21.2316 6.41487 20.4043 5.93498L13.7641 2.10703C13.3505 1.87266 12.881 1.7499 12.4226 1.7499Z" fill="currentColor"/>
<path d="M12.0019 11.8241C10.3019 11.8241 8.92188 10.444 8.92188 8.74401C8.92188 7.04401 10.3019 5.66406 12.0019 5.66406C13.7019 5.66406 15.0819 7.04401 15.0819 8.74401C15.0819 10.444 13.7019 11.8241 12.0019 11.8241ZM12.0019 7.16406C11.1319 7.16406 10.4219 7.87401 10.4219 8.74401C10.4219 9.61401 11.1319 10.3241 12.0019 10.3241C12.8719 10.3241 13.5819 9.61401 13.5819 8.74401C13.5819 7.87401 12.8719 7.16406 12.0019 7.16406Z" fill="currentColor"/>
<path d="M16 17.4788C15.59 17.4788 15.25 17.1388 15.25 16.7288C15.25 15.3488 13.79 14.2188 12 14.2188C10.21 14.2188 8.75 15.3488 8.75 16.7288C8.75 17.1388 8.41 17.4788 8 17.4788C7.59 17.4788 7.25 17.1388 7.25 16.7288C7.25 14.5188 9.38 12.7188 12 12.7188C14.62 12.7188 16.75 14.5188 16.75 16.7288C16.75 17.1388 16.41 17.4788 16 17.4788Z" fill="currentColor"/>
</g>
<defs>
<clipPath id="clip0_459_5808">
<rect width="24" height="24" fill="white" transform="translate(0 0.0703125)"/>
</clipPath>
</defs>
</svg>
