<svg width="24" height="20" viewBox="0 0 24 20" fill="none" xmlns="http://www.w3.org/2000/svg">
<path d="M11.9226 19.0703C11.9226 19.0703 1.42261 13.343 1.42261 6.3885C1.42261 5.15907 1.85993 3.96761 2.66016 3.01683C3.46039 2.06606 4.57411 1.41471 5.81181 1.1736C7.04952 0.932484 8.33476 1.11651 9.44887 1.69436C10.563 2.27221 11.4371 3.20818 11.9226 4.34305C12.4081 3.20818 13.2822 2.27221 14.3963 1.69436C15.5104 1.11651 16.7957 0.932484 18.0334 1.1736C19.2711 1.41471 20.3848 2.06606 21.1851 3.01683C21.9853 3.96761 22.4226 5.15907 22.4226 6.3885C22.4226 13.343 11.9226 19.0703 11.9226 19.0703Z" stroke="currentColor" stroke-width="1.5" stroke-linecap="round" stroke-linejoin="round"/>
</svg>
