<svg width="26" height="21" viewBox="0 0 26 21" fill="none" xmlns="http://www.w3.org/2000/svg">
<path d="M7.78318 15.5744C8.62385 16.2595 8.66821 18.1905 8.58531 19.0703C13.9624 17.0237 17.6682 18.2175 18.8489 19.0703C18.7153 17.7343 18.7123 15.0208 19.7693 14.855M7.78318 15.5744C6.393 15.8484 3.23175 15.7867 1.708 13.3476C-0.132442 10.4015 1.96597 7.39593 4.00672 6.80448C4.55031 6.64693 5.20498 6.6085 5.86859 6.72767M7.78318 15.5744C9.3266 14.855 15.7499 12.8818 19.7693 14.855M9.3266 10.4015C8.9167 8.07334 7.3698 6.99725 5.86859 6.72767M16.1899 11.532C17.5576 10.9382 20.0041 8.80512 18.8489 5.02307C17.405 0.295509 10.9685 0.939808 9.3266 2.07031C7.68466 3.20082 6.51542 4.73244 5.86859 6.72767M19.7693 14.855C21.4441 14.775 24.8331 13.7724 24.9907 10.4015C25.1877 6.18782 22.1994 4.92029 20.7545 4.71474C19.5986 4.55031 19.0025 4.64623 18.8489 4.71474" stroke="currentColor" stroke-width="1.5" stroke-linecap="round"/>
</svg>
