<svg width="24" height="25" viewBox="0 0 24 25" fill="none" xmlns="http://www.w3.org/2000/svg">
<path d="M19 8.82031C16.93 8.82031 15.25 7.14031 15.25 5.07031C15.25 3.00031 16.93 1.32031 19 1.32031C21.07 1.32031 22.75 3.00031 22.75 5.07031C22.75 7.14031 21.07 8.82031 19 8.82031ZM19 2.82031C17.76 2.82031 16.75 3.83031 16.75 5.07031C16.75 6.31031 17.76 7.32031 19 7.32031C20.24 7.32031 21.25 6.31031 21.25 5.07031C21.25 3.83031 20.24 2.82031 19 2.82031Z" fill="currentColor"/>
<path d="M12 13.8203H7C6.59 13.8203 6.25 13.4803 6.25 13.0703C6.25 12.6603 6.59 12.3203 7 12.3203H12C12.41 12.3203 12.75 12.6603 12.75 13.0703C12.75 13.4803 12.41 13.8203 12 13.8203Z" fill="currentColor"/>
<path d="M16 17.8203H7C6.59 17.8203 6.25 17.4803 6.25 17.0703C6.25 16.6603 6.59 16.3203 7 16.3203H16C16.41 16.3203 16.75 16.6603 16.75 17.0703C16.75 17.4803 16.41 17.8203 16 17.8203Z" fill="currentColor"/>
<path d="M15 22.8203H9C3.57 22.8203 1.25 20.5003 1.25 15.0703V9.07031C1.25 3.64031 3.57 1.32031 9 1.32031H14C14.41 1.32031 14.75 1.66031 14.75 2.07031C14.75 2.48031 14.41 2.82031 14 2.82031H9C4.39 2.82031 2.75 4.46031 2.75 9.07031V15.0703C2.75 19.6803 4.39 21.3203 9 21.3203H15C19.61 21.3203 21.25 19.6803 21.25 15.0703V10.0703C21.25 9.66031 21.59 9.32031 22 9.32031C22.41 9.32031 22.75 9.66031 22.75 10.0703V15.0703C22.75 20.5003 20.43 22.8203 15 22.8203Z" fill="currentColor"/>
</svg>
