<svg width="25" height="25" viewBox="0 0 25 25" fill="none" xmlns="http://www.w3.org/2000/svg">
<path d="M19.92 12.3462H16.5C16.09 12.3462 15.75 12.0062 15.75 11.5962V4.60619C15.75 3.86619 16.04 3.17619 16.56 2.65619C17.08 2.13619 17.77 1.84619 18.51 1.84619H18.52C19.77 1.85619 20.95 2.34619 21.85 3.23619C22.75 4.14619 23.24 5.34619 23.24 6.59619V9.01619C23.25 11.0062 21.91 12.3462 19.92 12.3462ZM17.25 10.8462H19.92C21.08 10.8462 21.75 10.1762 21.75 9.01619V6.59619C21.75 5.73619 21.41 4.91619 20.8 4.29619C20.19 3.69619 19.38 3.35619 18.52 3.34619C18.52 3.34619 18.52 3.34619 18.51 3.34619C18.18 3.34619 17.86 3.47619 17.62 3.71619C17.38 3.95619 17.25 4.26619 17.25 4.60619V10.8462Z" fill="currentColor"/>
<path d="M9.4978 23.9262C9.0278 23.9262 8.58781 23.7462 8.25781 23.4062L6.59777 21.7362C6.50777 21.6462 6.36782 21.6362 6.26782 21.7162L4.55779 22.9962C4.02779 23.3962 3.32778 23.4662 2.72778 23.1662C2.12778 22.8662 1.75781 22.2662 1.75781 21.5962V6.59619C1.75781 3.57619 3.48781 1.84619 6.50781 1.84619H18.5078C18.9178 1.84619 19.2578 2.18619 19.2578 2.59619C19.2578 3.00619 18.9178 3.34619 18.5078 3.34619C17.8178 3.34619 17.2578 3.90619 17.2578 4.59619V21.5962C17.2578 22.2662 16.8877 22.8662 16.2877 23.1662C15.6977 23.4662 14.9878 23.3962 14.4578 22.9962L12.7478 21.7162C12.6478 21.6362 12.5077 21.6562 12.4277 21.7362L10.7478 23.4162C10.4078 23.7462 9.9678 23.9262 9.4978 23.9262ZM6.40777 20.1662C6.86777 20.1662 7.31777 20.3362 7.65777 20.6862L9.3178 22.3562C9.3778 22.4162 9.4578 22.4262 9.4978 22.4262C9.5378 22.4262 9.61779 22.4162 9.67779 22.3562L11.3577 20.6762C11.9777 20.0562 12.9578 19.9962 13.6478 20.5262L15.3477 21.7962C15.4577 21.8762 15.5577 21.8462 15.6077 21.8162C15.6577 21.7862 15.7478 21.7262 15.7478 21.5962V4.59619C15.7478 4.14619 15.8577 3.71619 16.0477 3.34619H6.4978C4.2778 3.34619 3.2478 4.37619 3.2478 6.59619V21.5962C3.2478 21.7362 3.33781 21.7962 3.38781 21.8262C3.44781 21.8562 3.54782 21.8762 3.64782 21.7962L5.35778 20.5162C5.66778 20.2862 6.03777 20.1662 6.40777 20.1662Z" fill="currentColor"/>
<path d="M12.5 10.3462H6.5C6.09 10.3462 5.75 10.0062 5.75 9.59619C5.75 9.18619 6.09 8.84619 6.5 8.84619H12.5C12.91 8.84619 13.25 9.18619 13.25 9.59619C13.25 10.0062 12.91 10.3462 12.5 10.3462Z" fill="currentColor"/>
<path d="M11.75 14.3462H7.25C6.84 14.3462 6.5 14.0062 6.5 13.5962C6.5 13.1862 6.84 12.8462 7.25 12.8462H11.75C12.16 12.8462 12.5 13.1862 12.5 13.5962C12.5 14.0062 12.16 14.3462 11.75 14.3462Z" fill="currentColor"/>
</svg>
